<svg width="228" height="64" viewBox="0 0 228 64" fill="none" xmlns="http://www.w3.org/2000/svg">
<path d="M34.2571 17.1061C27.2869 10.136 16.1083 9.87293 8.87511 16.5801L8.34906 17.1061C8.15055 17.3046 8.01904 17.5007 7.82301 17.6322L7.55998 17.9622L33.468 43.9347C33.468 43.9347 34.5846 42.6196 34.7831 42.4236C41.4257 35.2549 41.2272 24.0763 34.2571 17.1061ZM33.138 31.5725C34.3216 33.6122 35.1106 35.6494 35.5052 37.4261C34.9146 38.5427 34.2571 39.5303 33.401 40.5154L28.2075 35.3219C29.7186 33.8752 31.4283 32.6246 33.138 31.5725ZM33.927 28.4832C32.7434 26.7066 31.3638 24.9324 29.7856 23.2872L33.401 19.6719C35.2422 21.8406 36.4928 24.4063 37.0188 27.2326C36.0312 27.4956 34.9791 27.9572 33.927 28.4832ZM31.7583 17.9622L28.1405 21.5776C26.4308 19.9349 24.5896 18.4882 22.7485 17.3046C23.2745 16.2525 23.669 15.2649 23.9991 14.3444C26.8923 14.8059 29.5226 16.054 31.7583 17.9622ZM26.4978 23.2227L21.3018 28.4162L17.5549 24.6693C19.1331 23.0242 20.5127 21.25 21.6318 19.3418C23.2745 20.4609 24.9197 21.7761 26.4978 23.2227ZM17.4879 14.5429C18.8701 14.2128 20.2497 14.0813 21.6318 14.0813C21.3688 14.7389 21.1058 15.3965 20.7758 16.121C19.5922 15.4635 18.5401 14.9374 17.4879 14.5429ZM28.1405 24.8654C29.5871 26.379 30.8377 27.9572 31.8898 29.5998C29.9817 30.7189 28.2075 32.0986 26.5623 33.6767L22.947 30.0614L28.1405 24.8654ZM36.8203 33.8752C36.3613 32.7561 35.8352 31.5725 35.1776 30.4559C35.8997 30.1259 36.5573 29.7983 37.2818 29.5353C37.3464 31.0465 37.1503 32.4931 36.8203 33.8752ZM19.5922 18.1582C18.5401 19.8679 17.2919 21.513 15.9098 23.0242L10.9123 18.0267C11.8329 17.2376 12.885 16.5156 13.9371 15.9225C15.6468 16.2525 17.6195 17.0416 19.5922 18.1582ZM12.885 27.5626L5.45578 20.1309C5.06124 20.5255 4.6667 20.92 4.20517 21.3145C3.81063 21.7091 3.74611 22.1036 3.94214 22.6967C5.45578 26.049 4.99424 29.3368 2.43099 32.8231C2.29948 32.9546 2.16796 33.1507 2.03645 33.2822C1.64191 33.6767 1.18038 33.9397 0.785838 34.2698L0.654326 34.3343C0.522813 34.4013 0.458297 34.4658 0.326785 34.5973C-0.00323753 34.9273 -0.0677532 35.2549 0.0637594 35.7164C0.259788 36.5055 0.458297 37.2276 0.654326 37.9521L0.721323 38.0836C0.852836 38.6097 0.984348 39.0687 1.11586 39.5948C1.24737 40.1208 1.57491 40.4509 2.16796 40.4509C4.27217 40.5824 6.04635 41.503 7.88752 43.2772C9.66419 44.9868 10.5848 47.0265 10.6493 49.3267C10.6493 49.7883 10.9123 50.1158 11.4384 50.2473C12.952 50.7089 14.2001 51.0364 15.4507 51.3664C15.5823 51.4309 15.7783 51.4309 16.0413 51.4309C16.1728 51.3664 16.3713 51.2994 16.4358 51.2349C16.5028 51.1679 16.5674 51.0364 16.6989 50.9049C16.9619 50.4458 17.2919 49.9843 17.751 49.5898C19.0016 48.4061 20.9073 47.4856 23.0115 47.158C25.1157 46.828 27.0884 47.091 28.4705 47.9471C28.6665 48.0786 28.9965 48.2101 29.3241 48.1431C29.5871 48.0786 29.7856 47.9471 30.0487 47.7486L31.3638 46.4335C31.4283 46.3689 31.4953 46.3019 31.6268 46.2374L23.9991 38.6742L23.9321 38.8057C22.8155 39.8578 21.5003 40.5824 19.9867 40.8454C17.4234 41.3715 14.8577 40.5824 13.0165 38.8057C11.4384 37.2946 10.5848 35.2549 10.5848 33.0862C10.5848 31.0465 11.3739 29.0738 12.885 27.5626Z" fill="#FFDE59"/>
<path d="M51.7457 44.3669H72.9887V36.692H68.4825V41.6175H60.6265V32.3446H65.3138V34.4662H68.1947V27.4712H65.3138V29.5928H60.6265V21.5258H68.1426V25.6648H72.6487V18.7765H51.7457V21.2653H54.3139V41.878H51.7457V44.3669ZM76.3931 44.3669H84.5395V41.878H81.9737V23.1238H82.1822L94.7032 44.3669H100.465V21.2653H103.033V18.7765H94.8868V21.2653H97.4525V36.7714H97.2168L86.8447 18.7765H76.3931V21.2653H78.9613V41.878H76.3931V44.3669ZM116.549 44.811C122.599 44.811 126.343 41.4339 126.343 36.7714C126.343 31.9774 123.227 29.6722 117.936 28.5977L116.366 28.3099C112.777 27.5779 111.467 26.764 111.467 24.5903C111.467 22.7318 112.959 21.1065 116.366 21.1065C119.167 21.1065 121.289 22.0767 121.289 24.6697V26.2926H125.795V18.7765H121.289V20.8981H121.132C120.557 19.8236 118.723 18.3298 115.606 18.3298C109.842 18.3298 106.646 21.4737 106.646 25.8732C106.646 31.166 110.182 33.5233 115.343 34.491L116.993 34.8334C120.321 35.486 121.236 36.3247 121.236 38.4736C121.236 40.5431 119.559 42.0096 116.259 42.0096C113.038 42.0096 110.944 41.0666 110.944 38.4736V36.8483H106.438V44.3669H110.944V42.2453H111.1C111.676 43.2924 113.509 44.811 116.549 44.811ZM129.723 44.3669H141.169V41.878H138.604V21.2653H141.169V18.7765H129.723V21.2653H132.291V41.878H129.723V44.3669ZM144.154 44.3669H152.301V41.878H149.735V23.1238H149.971L162.464 44.3669H168.226V21.2653H170.794V18.7765H162.648V21.2653H165.214V36.7714H165.005L154.606 18.7765H144.154V21.2653H146.723V41.878H144.154V44.3669ZM186.561 42.0096C183.707 42.0096 181.167 40.3322 181.167 35.9327V27.2107C181.167 22.8087 183.707 21.1065 186.561 21.1065C189.417 21.1065 191.958 22.8087 191.958 27.2107V35.9327C191.958 40.3322 189.417 42.0096 186.561 42.0096ZM186.561 44.811C193.556 44.811 198.926 40.1237 198.926 31.558C198.926 23.0196 193.556 18.3298 186.561 18.3298C179.541 18.3298 174.199 23.0196 174.199 31.558C174.199 40.1237 179.541 44.811 186.561 44.811ZM202.33 44.3669H213.777V41.878H211.211V33.0245H213.881L217.836 40.7788C219.119 43.2924 220.769 44.3669 224.332 44.3669H228V41.878H227.844C226.246 41.878 225.328 41.4066 224.332 39.7565L219.462 31.7416C222.63 31.0618 225.248 28.7814 225.248 25.2206C225.248 20.635 221.844 18.7765 217.208 18.7765H202.33V21.2653H204.898V41.878H202.33V44.3669ZM211.211 21.5258H214.747C217.313 21.5258 218.675 22.5482 218.675 24.9055V27.1064C218.675 29.4365 217.313 30.4588 214.747 30.4588H211.211V21.5258Z" fill="#FFDE59"/>
</svg>
