<svg width="30" height="23" viewBox="0 0 30 23" fill="none" xmlns="http://www.w3.org/2000/svg">
<path d="M18 15H24V16H18V15ZM18 13H22.065V14H18V13ZM18 11H24V12H18V11ZM18 9H22.065V10H18V9ZM18 7H24V8H18V7Z" fill="black"/>
<path d="M29 2H27V0.5C27 0.367392 26.9473 0.240215 26.8536 0.146447C26.7598 0.0526785 26.6326 0 26.5 0H20.36C18.4802 0.0181592 16.6358 0.513662 15 1.44C13.3632 0.516098 11.5195 0.020767 9.64 0H3.5C3.36739 0 3.24021 0.0526785 3.14645 0.146447C3.05268 0.240215 3 0.367392 3 0.5V2H1C0.867392 2 0.740215 2.05268 0.646447 2.14645C0.552678 2.24021 0.5 2.36739 0.5 2.5V22.5C0.5 22.6326 0.552678 22.7598 0.646447 22.8536C0.740215 22.9473 0.867392 23 1 23H29C29.1326 23 29.2598 22.9473 29.3536 22.8536C29.4473 22.7598 29.5 22.6326 29.5 22.5V2.5C29.5 2.36739 29.4473 2.24021 29.3536 2.14645C29.2598 2.05268 29.1326 2 29 2ZM20.36 1H26V18.5H20.36C18.6706 18.5218 17.0084 18.9288 15.5 19.69V2.31C16.9829 1.46877 18.6552 1.018 20.36 1ZM9 1V10.565L8.275 10.065C8.19336 10.0112 8.09775 9.98258 8 9.98258C7.90225 9.98258 7.80664 10.0112 7.725 10.065L7 10.565V1H9ZM4 1H6V11.5C6.00046 11.59 6.02523 11.6783 6.0717 11.7554C6.11816 11.8325 6.18458 11.8957 6.26396 11.9382C6.34334 11.9807 6.43272 12.001 6.52267 11.9969C6.61262 11.9928 6.6998 11.9645 6.775 11.915L8 11.1L9.225 11.915C9.3002 11.9645 9.38738 11.9928 9.47733 11.9969C9.56728 12.001 9.65666 11.9807 9.73604 11.9382C9.81542 11.8957 9.88184 11.8325 9.9283 11.7554C9.97477 11.6783 9.99954 11.59 10 11.5V1C11.5811 1.07509 13.1224 1.52037 14.5 2.3V19.69C12.9978 18.9121 11.3316 18.5041 9.64 18.5H4V1ZM28.5 22H1.5V3H3V19C3 19.1326 3.05268 19.2598 3.14645 19.3536C3.24021 19.4473 3.36739 19.5 3.5 19.5H9.64C11.1151 19.4989 12.5702 19.8412 13.89 20.5C14.69 20.85 14.89 21.115 15.225 20.94L16.11 20.5C17.4298 19.8412 18.8849 19.4989 20.36 19.5H26.5C26.6326 19.5 26.7598 19.4473 26.8536 19.3536C26.9473 19.2598 27 19.1326 27 19V3H28.5V22Z" fill="black"/>
</svg>
