<svg width="24" height="24" viewBox="0 0 24 24" fill="none" xmlns="http://www.w3.org/2000/svg">
<g clip-path="url(#clip0_1402_3397)">
<path d="M23.0502 5.29554L12.1533 0.0349441C12.1056 0.0119448 12.0534 0 12.0005 0C11.9475 0 11.8953 0.0119448 11.8476 0.0349441L0.950656 5.29554C0.891117 5.32429 0.840891 5.36924 0.805743 5.42524C0.770596 5.48124 0.751953 5.54602 0.751953 5.61213V18.3879C0.751953 18.454 0.770596 18.5188 0.805743 18.5748C0.840891 18.6308 0.891117 18.6757 0.950656 18.7045L11.8476 23.9651C11.8953 23.9881 11.9475 24 12.0005 24C12.0534 24 12.1056 23.9881 12.1533 23.9651L23.0502 18.7045C23.1098 18.6757 23.16 18.6308 23.1952 18.5748C23.2303 18.5188 23.249 18.454 23.249 18.3879V5.61218C23.2489 5.54606 23.2303 5.48128 23.1952 5.42527C23.16 5.36926 23.1098 5.3243 23.0502 5.29554ZM12.0005 0.74196L22.0887 5.61213L19.1644 7.02391C19.1458 7.00944 19.1259 6.99687 19.1048 6.98641L9.08506 2.14938L12.0005 0.74196ZM8.29109 2.54688L18.3647 7.40998L16.3015 8.40602L6.23206 3.5449L8.29109 2.54688ZM18.6004 8.07691V11.7588L16.6732 12.6891V9.00729L18.6004 8.07691ZM22.5458 18.1673L12.352 23.0883V11.0934L14.7836 9.91952C14.8251 9.89945 14.8624 9.87138 14.8931 9.83693C14.9238 9.80247 14.9475 9.7623 14.9627 9.71871C14.9779 9.67511 14.9843 9.62895 14.9817 9.58286C14.9791 9.53677 14.9674 9.49164 14.9473 9.45007C14.9272 9.40849 14.8992 9.37128 14.8647 9.34055C14.8302 9.30982 14.7901 9.28618 14.7465 9.27098C14.7029 9.25577 14.6567 9.2493 14.6106 9.25194C14.5645 9.25457 14.5194 9.26626 14.4778 9.28633L12.0005 10.4824L11.0256 10.0117C10.9841 9.99164 10.9389 9.97994 10.8928 9.9773C10.8468 9.97466 10.8006 9.98112 10.757 9.99633C10.7134 10.0115 10.6732 10.0352 10.6388 10.0659C10.6043 10.0967 10.5763 10.1339 10.5562 10.1755C10.5361 10.217 10.5244 10.2622 10.5218 10.3083C10.5192 10.3543 10.5256 10.4005 10.5408 10.4441C10.556 10.4877 10.5797 10.5279 10.6104 10.5623C10.6411 10.5968 10.6783 10.6248 10.7199 10.6449L11.6489 11.0934V23.0883L1.45508 18.1672V6.17224L9.21758 9.91966C9.26513 9.94273 9.3173 9.95471 9.37016 9.95473C9.44982 9.95482 9.52717 9.92786 9.5895 9.87825C9.65184 9.82864 9.69548 9.75933 9.71327 9.68167C9.73107 9.60401 9.72195 9.52262 9.68743 9.45082C9.6529 9.37901 9.59502 9.32107 9.52325 9.28648L1.91216 5.61213L5.40458 3.92613L15.9652 9.0244C15.9668 9.02655 15.9685 9.02847 15.9701 9.03058V13.2493C15.9701 13.3088 15.9853 13.3673 16.0141 13.4194C16.0429 13.4715 16.0844 13.5154 16.1348 13.547C16.1852 13.5786 16.2428 13.597 16.3022 13.6003C16.3617 13.6036 16.4209 13.5917 16.4745 13.5659L19.1048 12.2961C19.1644 12.2673 19.2146 12.2224 19.2497 12.1664C19.2849 12.1104 19.3035 12.0456 19.3035 11.9795V7.73754L22.5458 6.17229V18.1673Z" fill="#262626"/>
<path d="M4.35552 16.8037L2.75638 16.0317C2.67241 15.9912 2.57578 15.9857 2.48774 16.0164C2.3997 16.0471 2.32746 16.1115 2.28692 16.1955C2.24638 16.2794 2.24086 16.3761 2.27156 16.4641C2.30227 16.5521 2.36669 16.6244 2.45066 16.6649L4.0498 17.4369C4.09736 17.46 4.14952 17.4719 4.20238 17.472C4.26854 17.472 4.33338 17.4534 4.38942 17.4182C4.44547 17.383 4.49045 17.3328 4.51921 17.2732C4.53929 17.2316 4.55098 17.1865 4.55363 17.1404C4.55627 17.0943 4.5498 17.0481 4.5346 17.0045C4.5194 16.9609 4.49576 16.9208 4.46504 16.8863C4.43431 16.8518 4.39709 16.8238 4.35552 16.8037ZM5.82725 15.8457L2.75858 14.3643C2.67481 14.3253 2.57905 14.3208 2.49202 14.3519C2.40498 14.3829 2.33367 14.447 2.2935 14.5302C2.25333 14.6134 2.24753 14.7091 2.27736 14.7965C2.3072 14.884 2.37026 14.9562 2.45291 14.9975L5.52158 16.479C5.56915 16.502 5.62131 16.514 5.67416 16.514C5.75385 16.5141 5.83121 16.4872 5.89357 16.4376C5.95593 16.388 5.99958 16.3186 6.01738 16.241C6.03517 16.1633 6.02605 16.0819 5.9915 16.0101C5.95696 15.9383 5.89904 15.8803 5.82725 15.8457Z" fill="#262626"/>
</g>
<defs>
<clipPath id="clip0_1402_3397">
<rect width="24" height="24" fill="white"/>
</clipPath>
</defs>
</svg>
