<svg width="30" height="28" viewBox="0 0 30 28" fill="none" xmlns="http://www.w3.org/2000/svg">
<path d="M15 24.195C14.875 24.195 14.75 24.15 14.65 24.055L13.535 22.975L12.03 23.355C11.77 23.42 11.5 23.265 11.425 23.005L11.005 21.51L9.50999 21.09C9.24999 21.015 9.09499 20.75 9.15999 20.485L9.53999 18.98L8.45999 17.865C8.36869 17.7724 8.3175 17.6476 8.3175 17.5175C8.3175 17.3875 8.36869 17.2626 8.45999 17.17L9.53999 16.055L9.15999 14.55C9.09499 14.285 9.24999 14.02 9.50999 13.945L11.005 13.525L11.425 12.03C11.5 11.77 11.765 11.615 12.03 11.68L13.535 12.06L14.65 10.98C14.7426 10.8887 14.8674 10.8375 14.9975 10.8375C15.1275 10.8375 15.2524 10.8887 15.345 10.98L16.46 12.06L17.965 11.68C18.23 11.615 18.495 11.77 18.57 12.03L18.99 13.525L20.485 13.945C20.745 14.02 20.9 14.285 20.835 14.55L20.455 16.055L21.535 17.17C21.6263 17.2626 21.6775 17.3875 21.6775 17.5175C21.6775 17.6476 21.6263 17.7724 21.535 17.865L20.455 18.98L20.835 20.485C20.9 20.75 20.745 21.015 20.485 21.09L18.99 21.51L18.57 23.005C18.495 23.265 18.225 23.42 17.965 23.355L16.46 22.975L15.345 24.055C15.25 24.15 15.125 24.195 15 24.195ZM13.685 21.92C13.815 21.92 13.94 21.97 14.035 22.06L15 23L15.965 22.06C16.09 21.94 16.27 21.89 16.435 21.935L17.74 22.265L18.105 20.97C18.15 20.8 18.285 20.67 18.45 20.625L19.745 20.26L19.415 18.955C19.37 18.785 19.42 18.61 19.54 18.485L20.48 17.52L19.54 16.555C19.4806 16.494 19.4379 16.4187 19.416 16.3364C19.3941 16.254 19.3938 16.1675 19.415 16.085L19.745 14.78L18.45 14.415C18.3674 14.3926 18.2921 14.349 18.2315 14.2884C18.171 14.2279 18.1274 14.1526 18.105 14.07L17.74 12.775L16.435 13.105C16.3525 13.1262 16.2659 13.1259 16.1836 13.104C16.1013 13.0821 16.026 13.0394 15.965 12.98L15 12.045L14.035 12.985C13.91 13.105 13.73 13.155 13.565 13.11L12.26 12.78L11.895 14.075C11.85 14.24 11.715 14.375 11.55 14.42L10.255 14.785L10.585 16.09C10.63 16.26 10.58 16.435 10.46 16.56L9.51999 17.525L10.46 18.49C10.58 18.615 10.63 18.795 10.585 18.96L10.255 20.265L11.55 20.63C11.72 20.675 11.85 20.81 11.895 20.975L12.26 22.27L13.565 21.94C13.605 21.925 13.645 21.92 13.685 21.92Z" fill="black"/>
<path d="M11.98 27.4601H11.94C11.8393 27.4526 11.7432 27.4146 11.6647 27.3512C11.5861 27.2878 11.5286 27.2019 11.5 27.1051L10.83 24.8901L8.99998 25.5901C8.9089 25.625 8.80953 25.6323 8.71434 25.6109C8.61916 25.5896 8.53241 25.5406 8.46498 25.4701C8.32498 25.3251 8.28498 25.1151 8.35998 24.9301L10.12 20.6801C10.1453 20.6194 10.1823 20.5642 10.2288 20.5178C10.2754 20.4713 10.3307 20.4345 10.3916 20.4094C10.4524 20.3844 10.5175 20.3715 10.5833 20.3716C10.6491 20.3717 10.7142 20.3848 10.775 20.4101C10.8357 20.4354 10.8909 20.4724 10.9373 20.519C10.9838 20.5656 11.0206 20.6209 11.0456 20.6817C11.0707 20.7425 11.0835 20.8077 11.0834 20.8734C11.0833 20.9392 11.0703 21.0044 11.045 21.0651L9.72998 24.2401L10.975 23.7651C11.105 23.7151 11.25 23.7201 11.375 23.7851C11.5 23.8451 11.595 23.9551 11.635 24.0901L12.09 25.5901L13.565 22.5251C13.685 22.2751 13.985 22.1701 14.23 22.2901C14.48 22.4101 14.585 22.7101 14.465 22.9551L12.43 27.1751C12.345 27.3501 12.17 27.4601 11.98 27.4601ZM18.02 27.4601C17.83 27.4601 17.655 27.3501 17.57 27.1751L15.535 22.9551C15.5062 22.8961 15.4895 22.832 15.4858 22.7664C15.4821 22.7009 15.4914 22.6353 15.5133 22.5734C15.5351 22.5115 15.5691 22.4546 15.6132 22.406C15.6572 22.3573 15.7105 22.3179 15.77 22.2901C15.829 22.2614 15.8931 22.2446 15.9586 22.2409C16.0242 22.2372 16.0898 22.2465 16.1517 22.2684C16.2136 22.2903 16.2705 22.3242 16.3191 22.3683C16.3677 22.4124 16.4071 22.4657 16.435 22.5251L17.91 25.5901L18.365 24.0901C18.3853 24.0243 18.4188 23.9633 18.4635 23.9109C18.5082 23.8585 18.5632 23.8158 18.6249 23.7854C18.6867 23.7549 18.7541 23.7374 18.8229 23.734C18.8917 23.7305 18.9604 23.7411 19.025 23.7651L20.27 24.2401L18.955 21.0651C18.85 20.8101 18.97 20.5151 19.225 20.4101C19.48 20.3051 19.775 20.4251 19.88 20.6801L21.64 24.9301C21.6766 25.0204 21.6861 25.1193 21.6675 25.2149C21.6488 25.3105 21.6028 25.3987 21.535 25.4686C21.4672 25.5385 21.3805 25.5872 21.2855 25.6088C21.1905 25.6304 21.0913 25.6239 21 25.5901L19.17 24.8901L18.5 27.1051C18.44 27.3001 18.265 27.4451 18.06 27.4601H18.02ZM15 20.8201C13.18 20.8201 11.7 19.3401 11.7 17.5201C11.7 15.7001 13.18 14.2201 15 14.2201C16.82 14.2201 18.3 15.7001 18.3 17.5201C18.3 19.3401 16.82 20.8201 15 20.8201ZM15 15.2201C14.6979 15.2201 14.3988 15.2797 14.1197 15.3953C13.8407 15.5109 13.5871 15.6804 13.3735 15.894C13.16 16.1076 12.9905 16.3612 12.875 16.6403C12.7594 16.9194 12.6999 17.2185 12.7 17.5206C12.7 17.8227 12.7595 18.1218 12.8752 18.4008C12.9908 18.6799 13.1603 18.9335 13.3739 19.147C13.5875 19.3606 13.8411 19.53 14.1202 19.6456C14.3993 19.7612 14.6984 19.8206 15.0005 19.8206C15.6105 19.8205 16.1956 19.5781 16.6269 19.1467C17.0583 18.7153 17.3005 18.1302 17.3005 17.5201C17.3004 16.91 17.058 16.325 16.6266 15.8936C16.1951 15.4623 15.61 15.22 15 15.2201Z" fill="black"/>
<path d="M27.395 22.15H21.97C21.695 22.15 21.47 21.925 21.47 21.65C21.47 21.375 21.695 21.15 21.97 21.15H27.39C27.94 21.15 28.385 20.705 28.385 20.155V2.54004C28.385 1.99004 27.94 1.54504 27.39 1.54504H2.60499C2.05499 1.54504 1.60999 1.99004 1.60999 2.54004V20.155C1.60999 20.705 2.05499 21.15 2.60499 21.15H7.52498C7.79998 21.15 8.02498 21.375 8.02498 21.65C8.02498 21.925 7.79998 22.15 7.52498 22.15H2.60499C1.50499 22.15 0.609985 21.255 0.609985 20.155V2.54004C0.609985 1.44004 1.50499 0.545044 2.60499 0.545044H27.395C28.495 0.545044 29.39 1.44004 29.39 2.54004V20.155C29.39 21.255 28.495 22.15 27.395 22.15Z" fill="black"/>
<path d="M25.8 20.2751H22.135C21.86 20.2751 21.635 20.0501 21.635 19.7751C21.635 19.5001 21.86 19.2751 22.135 19.2751H25.8C26.23 19.2751 26.575 18.9501 26.575 18.5551V4.17007C26.575 3.77007 26.225 3.45007 25.8 3.45007H4.66001C4.23001 3.45007 3.88501 3.77507 3.88501 4.17007V18.5501C3.88501 18.9501 4.23501 19.2701 4.66001 19.2701H7.56001C7.83501 19.2701 8.06001 19.4951 8.06001 19.7701C8.06001 20.0451 7.83501 20.2701 7.56001 20.2701H4.66001C3.68001 20.2701 2.88501 19.5001 2.88501 18.5501V4.17007C2.88501 3.22007 3.68001 2.45007 4.66001 2.45007H25.8C26.78 2.45007 27.575 3.22007 27.575 4.17007V18.5501C27.575 19.5051 26.78 20.2751 25.8 20.2751Z" fill="black"/>
<path d="M16.31 6.30005H6.495C6.22 6.30005 5.995 6.07505 5.995 5.80005C5.995 5.52505 6.22 5.30005 6.495 5.30005H16.305C16.58 5.30005 16.805 5.52505 16.805 5.80005C16.805 6.07505 16.585 6.30005 16.31 6.30005ZM23.96 6.30005H18.67C18.395 6.30005 18.17 6.07505 18.17 5.80005C18.17 5.52505 18.395 5.30005 18.67 5.30005H23.96C24.235 5.30005 24.46 5.52505 24.46 5.80005C24.46 6.07505 24.235 6.30005 23.96 6.30005ZM23.96 9.33505H14.15C13.875 9.33505 13.65 9.11005 13.65 8.83505C13.65 8.56005 13.875 8.33505 14.15 8.33505H23.96C24.235 8.33505 24.46 8.56005 24.46 8.83505C24.46 9.11005 24.235 9.33505 23.96 9.33505ZM11.79 9.33505H6.495C6.22 9.33505 5.995 9.11005 5.995 8.83505C5.995 8.56005 6.22 8.33505 6.495 8.33505H11.785C12.06 8.33505 12.285 8.56005 12.285 8.83505C12.285 9.11005 12.065 9.33505 11.79 9.33505Z" fill="black"/>
</svg>
