<svg width="16" height="20" viewBox="0 0 16 20" fill="none" xmlns="http://www.w3.org/2000/svg">
<path d="M15.8204 18.0204L13.5617 12.081C13.7849 11.9476 13.9788 11.7705 14.132 11.5604C14.2966 11.3342 14.4093 11.0745 14.462 10.7998C14.5147 10.525 14.5062 10.2421 14.437 9.97101C14.3785 9.73405 14.3883 9.48536 14.4653 9.25375C14.5423 9.02213 14.6833 8.81706 14.872 8.66226C15.0905 8.48319 15.2665 8.25779 15.3873 8.00237C15.508 7.74694 15.5705 7.46788 15.5702 7.18535C15.5698 6.90283 15.5067 6.62391 15.3854 6.36876C15.264 6.11362 15.0875 5.88863 14.8686 5.71007C14.6805 5.55471 14.5403 5.34931 14.4641 5.1176C14.3879 4.88589 14.3788 4.63734 14.4379 4.4007C14.5066 4.13006 14.5148 3.84761 14.462 3.57344C14.4091 3.29927 14.2964 3.04013 14.132 2.81445C13.9635 2.58268 13.746 2.39091 13.4949 2.25279C13.2439 2.11468 12.9655 2.03362 12.6795 2.01539C12.4335 1.99884 12.1969 1.91417 11.9962 1.77084C11.7956 1.62752 11.6387 1.43119 11.5433 1.20382C11.4364 0.943567 11.2741 0.709753 11.0676 0.518689C10.8611 0.327625 10.6154 0.183912 10.3476 0.0975734C10.076 0.00875181 9.78826 -0.0197596 9.50448 0.0140267C9.2207 0.0478129 8.9477 0.143084 8.70451 0.293198C8.49247 0.422765 8.24879 0.49132 8.00029 0.49132C7.7518 0.49132 7.50812 0.422765 7.29607 0.293198C7.05289 0.143084 6.77989 0.0478129 6.4961 0.0140267C6.21232 -0.0197596 5.92458 0.00875181 5.65295 0.0975734C5.38526 0.18397 5.13963 0.327708 4.93319 0.518767C4.72675 0.709827 4.56446 0.943611 4.45764 1.20382C4.36192 1.43159 4.20465 1.6282 4.00346 1.7716C3.80227 1.915 3.56511 1.99952 3.31857 2.0157C3.03301 2.03414 2.75502 2.11531 2.5044 2.25342C2.25378 2.39153 2.03669 2.58319 1.86857 2.81476C1.70403 3.04097 1.59141 3.3007 1.53875 3.57542C1.48608 3.85015 1.49466 4.13311 1.56389 4.40414C1.62241 4.64114 1.61261 4.88988 1.53562 5.12155C1.45864 5.35322 1.31762 5.55835 1.12889 5.7132C0.910432 5.89229 0.734506 6.11769 0.613827 6.3731C0.493147 6.62851 0.43073 6.90754 0.431089 7.19002C0.431448 7.47251 0.494574 7.75138 0.615902 8.00648C0.73723 8.26158 0.913728 8.48653 1.13264 8.66507C1.32062 8.82047 1.46079 9.02589 1.53694 9.2576C1.61309 9.48931 1.6221 9.73783 1.56295 9.97445C1.49425 10.2451 1.48605 10.5275 1.53893 10.8017C1.59181 11.0759 1.70447 11.335 1.86889 11.5607C2.02209 11.7707 2.21606 11.9477 2.4392 12.081L0.180448 18.0204C0.159288 18.0762 0.154558 18.1369 0.166818 18.1953C0.179078 18.2538 0.207816 18.3074 0.24963 18.3501C0.291445 18.3927 0.344587 18.4224 0.40277 18.4357C0.460954 18.4491 0.521743 18.4455 0.577948 18.4254L3.03826 17.541L4.28857 19.8369C4.31542 19.8863 4.35508 19.9275 4.40336 19.9562C4.45165 19.9849 4.50677 20.0001 4.56295 20.0001L4.58389 19.9994C4.64356 19.9955 4.70083 19.9744 4.74891 19.9389C4.79699 19.9033 4.83386 19.8547 4.85514 19.7988L6.96982 14.241C7.08336 14.1981 7.19268 14.1447 7.29639 14.0816C7.50841 13.9522 7.75202 13.8837 8.00045 13.8837C8.24887 13.8837 8.49249 13.9522 8.70451 14.0816C8.80799 14.1439 8.91699 14.1969 9.03014 14.2391L11.1458 19.7985C11.167 19.8544 11.2039 19.903 11.252 19.9386C11.3001 19.9741 11.3573 19.9952 11.417 19.9991L11.4379 19.9998C11.4941 19.9997 11.5492 19.9846 11.5975 19.9559C11.6458 19.9272 11.6855 19.886 11.7123 19.8366L12.9623 17.5407L15.4229 18.4251C15.4792 18.4452 15.5399 18.4488 15.5981 18.4354C15.6563 18.4221 15.7095 18.3923 15.7513 18.3497C15.7931 18.3071 15.8218 18.2534 15.8341 18.195C15.8463 18.1366 15.8416 18.0762 15.8204 18.0204ZM4.51295 18.9413L3.45951 17.0069C3.42385 16.9415 3.36595 16.8909 3.29626 16.8643C3.22657 16.8378 3.1497 16.8371 3.07951 16.8623L1.00607 17.6076L3.01982 12.3132C3.11911 12.3364 3.22003 12.352 3.3217 12.3598C3.56774 12.3763 3.80432 12.461 4.00499 12.6043C4.20565 12.7476 4.36249 12.944 4.45795 13.1713C4.56479 13.4316 4.72712 13.6654 4.93362 13.8565C5.14012 14.0475 5.38582 14.1912 5.65357 14.2776C5.84675 14.34 6.04839 14.3722 6.25139 14.3732L4.51295 18.9413ZM6.96795 13.5501C6.80206 13.6525 6.6158 13.7175 6.42219 13.7405C6.22858 13.7635 6.03228 13.7439 5.84701 13.6832C5.66566 13.6249 5.49921 13.5277 5.35926 13.3984C5.21931 13.2691 5.10924 13.1109 5.0367 12.9348C4.89629 12.599 4.66515 12.3091 4.36919 12.0973C4.07323 11.8856 3.72415 11.7605 3.36107 11.736C3.16698 11.7235 2.97801 11.6685 2.8076 11.5747C2.6372 11.481 2.48954 11.3508 2.37514 11.1935C2.26448 11.0414 2.18875 10.8667 2.15337 10.682C2.11799 10.4973 2.12382 10.307 2.17045 10.1248C2.25757 9.77297 2.24338 9.40372 2.12953 9.05965C2.01567 8.71559 1.80678 8.41076 1.52701 8.18039C1.37954 8.0599 1.26077 7.90808 1.17932 7.73595C1.09788 7.56382 1.05581 7.3757 1.05616 7.18528C1.05652 6.99485 1.09931 6.80689 1.1814 6.63507C1.26349 6.46325 1.38284 6.31187 1.53076 6.19195C1.80981 5.96098 2.01786 5.6558 2.13088 5.31165C2.2439 4.96749 2.25729 4.59839 2.16951 4.24695C2.12337 4.06513 2.11787 3.87537 2.15341 3.69119C2.18895 3.507 2.26465 3.33292 2.37514 3.18132C2.49001 3.02371 2.63824 2.89338 2.80925 2.79961C2.98026 2.70584 3.16985 2.65094 3.36451 2.63882C3.72694 2.61385 4.07526 2.48852 4.37053 2.27687C4.66579 2.06522 4.89634 1.77559 5.03639 1.44039C5.10892 1.26412 5.21907 1.10581 5.35914 0.97654C5.4992 0.847266 5.66582 0.750139 5.84732 0.691948C6.03266 0.631272 6.22899 0.611749 6.42264 0.634741C6.61629 0.657733 6.8026 0.722687 6.96857 0.825073C7.2795 1.01493 7.63676 1.11538 8.00107 1.11538C8.36538 1.11538 8.72264 1.01493 9.03357 0.825073C9.1995 0.722713 9.38575 0.657774 9.57935 0.634782C9.77294 0.61179 9.96923 0.631298 10.1545 0.691948C10.336 0.750288 10.5025 0.847508 10.6425 0.976827C10.7825 1.10615 10.8926 1.26445 10.9651 1.4407C11.1055 1.77633 11.3365 2.06625 11.6324 2.27797C11.9282 2.4897 12.2772 2.61486 12.6401 2.63945C12.8343 2.65185 13.0233 2.70686 13.1937 2.80057C13.3642 2.89427 13.5119 3.02438 13.6264 3.18164C13.737 3.33374 13.8128 3.5084 13.8481 3.69314C13.8835 3.87788 13.8777 4.06816 13.8311 4.25039C13.7439 4.60217 13.7581 4.97143 13.872 5.3155C13.9859 5.65956 14.1947 5.96439 14.4745 6.19476C14.622 6.31524 14.7408 6.46706 14.8222 6.6392C14.9036 6.81133 14.9457 6.99944 14.9454 7.18987C14.945 7.3803 14.9022 7.56825 14.8201 7.74008C14.738 7.9119 14.6187 8.06327 14.4708 8.1832C14.1917 8.41417 13.9837 8.71934 13.8706 9.0635C13.7576 9.40765 13.7442 9.77676 13.832 10.1282C13.8782 10.31 13.8837 10.4998 13.8481 10.684C13.8126 10.8681 13.7369 11.0422 13.6264 11.1938C13.5115 11.3514 13.3632 11.4816 13.1922 11.5754C13.0212 11.6691 12.8316 11.7239 12.637 11.736C12.2746 11.761 11.9262 11.8864 11.6309 12.0981C11.3357 12.3098 11.1051 12.5995 10.9651 12.9348C10.8926 13.111 10.7825 13.2693 10.6424 13.3986C10.5023 13.5279 10.3357 13.625 10.1542 13.6832C9.96889 13.7441 9.77253 13.7637 9.57884 13.7407C9.38516 13.7177 9.19885 13.6526 9.03295 13.5501C8.72202 13.3602 8.36476 13.2598 8.00045 13.2598C7.63614 13.2598 7.27888 13.3602 6.96795 13.5501ZM12.922 16.8623C12.8518 16.8371 12.7749 16.8378 12.7053 16.8643C12.6356 16.8909 12.5777 16.9415 12.542 17.0069L11.4889 18.9413L9.75045 14.3738C9.95336 14.3727 10.1549 14.3403 10.3479 14.2779C10.6158 14.1915 10.8615 14.0477 11.068 13.8566C11.2746 13.6655 11.437 13.4316 11.5439 13.1713C11.6395 12.9435 11.7967 12.7469 11.9978 12.6035C12.199 12.4601 12.4361 12.3756 12.6826 12.3594C12.7834 12.3517 12.8833 12.3362 12.9817 12.3132L14.9954 17.6073L12.922 16.8623Z" fill="black"/>
<path d="M12.6875 7.1875C12.6875 6.2604 12.4126 5.35412 11.8975 4.58327C11.3824 3.81241 10.6504 3.2116 9.79383 2.85682C8.9373 2.50203 7.9948 2.4092 7.08552 2.59007C6.17623 2.77094 5.341 3.21738 4.68544 3.87294C4.02988 4.5285 3.58344 5.36373 3.40257 6.27302C3.2217 7.1823 3.31453 8.1248 3.66932 8.98133C4.0241 9.83786 4.62491 10.5699 5.39577 11.085C6.16662 11.6001 7.0729 11.875 8 11.875C9.24277 11.8736 10.4342 11.3793 11.313 10.5005C12.1918 9.62174 12.6861 8.43027 12.6875 7.1875ZM8 11.25C7.19652 11.25 6.41107 11.0117 5.743 10.5653C5.07492 10.119 4.55422 9.48448 4.24674 8.74215C3.93926 7.99983 3.85881 7.183 4.01556 6.39495C4.17231 5.6069 4.55923 4.88303 5.12738 4.31488C5.69553 3.74673 6.4194 3.35981 7.20745 3.20306C7.99549 3.04631 8.81233 3.12676 9.55465 3.43424C10.297 3.74172 10.9315 4.26242 11.3778 4.9305C11.8242 5.59857 12.0625 6.38402 12.0625 7.1875C12.0613 8.26456 11.6329 9.29716 10.8713 10.0588C10.1097 10.8204 9.07706 11.2488 8 11.25Z" fill="black"/>
<path d="M10.4856 6.1513L8.96181 5.93005L8.28056 4.54943C8.25186 4.50063 8.21092 4.46017 8.16178 4.43206C8.11264 4.40395 8.05701 4.38916 8.0004 4.38916C7.94379 4.38916 7.88816 4.40395 7.83902 4.43206C7.78988 4.46017 7.74894 4.50063 7.72025 4.54943L7.03868 5.93005L5.51493 6.1513C5.45719 6.15963 5.40293 6.18397 5.3583 6.22154C5.31367 6.25912 5.28045 6.30844 5.2624 6.36392C5.24435 6.4194 5.24219 6.47883 5.25617 6.53547C5.27015 6.59211 5.29971 6.64371 5.3415 6.68443L6.44462 7.75943L6.18431 9.27661C6.1745 9.33404 6.18095 9.39306 6.20291 9.44702C6.22487 9.50098 6.26148 9.54773 6.30861 9.58198C6.35573 9.61624 6.41149 9.63664 6.4696 9.64088C6.5277 9.64512 6.58583 9.63303 6.63743 9.60599L8.00025 8.88974L9.36306 9.60599C9.41466 9.63303 9.47279 9.64512 9.53089 9.64088C9.589 9.63664 9.64476 9.61624 9.69188 9.58198C9.73901 9.54773 9.77562 9.50098 9.79758 9.44702C9.81954 9.39306 9.82599 9.33404 9.81618 9.27661L9.55587 7.75911L10.659 6.68443C10.7008 6.64371 10.7303 6.59211 10.7443 6.53547C10.7583 6.47883 10.7561 6.4194 10.7381 6.36392C10.72 6.30844 10.6868 6.25912 10.6422 6.22154C10.5976 6.18397 10.5433 6.15963 10.4856 6.1513ZM9.00212 7.4263C8.9659 7.4617 8.93882 7.50536 8.92319 7.55353C8.90757 7.6017 8.90388 7.65295 8.91243 7.70286L9.09337 8.75817L8.14556 8.26005C8.10074 8.23651 8.05087 8.22421 8.00025 8.22421C7.94962 8.22421 7.89975 8.23651 7.85493 8.26005L6.90712 8.75817L7.08837 7.70286C7.09689 7.65292 7.09314 7.60166 7.07747 7.55349C7.06179 7.50531 7.03465 7.46166 6.99837 7.4263L6.2315 6.6788L7.29087 6.52474C7.34108 6.51753 7.38877 6.4982 7.42983 6.46841C7.47088 6.43863 7.50406 6.39929 7.52649 6.3538L8.00025 5.3938L8.47431 6.3538C8.49664 6.39927 8.52971 6.43862 8.57065 6.46846C8.61159 6.49829 8.65918 6.51771 8.70931 6.52505L9.76899 6.6788L9.00212 7.4263Z" fill="black"/>
</svg>
