<svg width="32" height="32" viewBox="0 0 32 32" fill="none" xmlns="http://www.w3.org/2000/svg">
<path d="M16 32C24.8213 32 32 24.8213 32 16C32 7.17868 24.8214 0 16 0C7.17859 0 0 7.17868 0 16C0 24.8213 7.17868 32 16 32ZM16 2.1333C23.648 2.1333 29.8667 8.35194 29.8667 16C29.8667 23.6481 23.6481 29.8667 16 29.8667C8.35194 29.8667 2.1333 23.6481 2.1333 16C2.1333 8.35194 8.35203 2.1333 16 2.1333Z" fill="black"/>
<path d="M20.6667 21.0987C20.864 21.2586 21.0986 21.3334 21.3333 21.3334C21.4932 21.3337 21.651 21.2979 21.7951 21.2286C21.9392 21.1594 22.0657 21.0584 22.1653 20.9334C22.5333 20.4747 22.4586 19.8027 22 19.4347L17.0666 15.488V7.46667C17.0666 6.88 16.5867 6.40002 16 6.40002C15.4133 6.40002 14.9333 6.88 14.9333 7.46667V16C14.9333 16.3254 15.0827 16.6294 15.3333 16.832L20.6667 21.0987Z" fill="black"/>
</svg>
