<svg width="25" height="26" viewBox="0 0 25 26" fill="none" xmlns="http://www.w3.org/2000/svg">
<g clip-path="url(#clip0_855_1395)">
<path d="M20.553 18.9304V14.4529C20.553 13.9358 20.1335 13.5164 19.6165 13.5164H10.092L9.05103 11.7351C8.9191 11.5095 8.73042 11.3224 8.50376 11.1924C8.2771 11.0624 8.02035 10.9939 7.75903 10.9939H2.51392C1.99683 10.9939 1.57788 11.4128 1.57788 11.9299V23.8103C1.57788 24.3274 1.99683 24.7463 2.51392 24.7463H13.9402" stroke="black" stroke-width="0.732422" stroke-miterlimit="10" stroke-linecap="round" stroke-linejoin="round"/>
<path d="M23.4221 21.3169V24.1498C23.4221 24.4949 23.1423 24.7747 22.7972 24.7747H14.1272C13.7821 24.7747 13.5023 24.4949 13.5023 24.1498V19.5552C13.5023 19.2101 13.7821 18.9303 14.1272 18.9303H22.7972C23.1423 18.9303 23.4221 19.2101 23.4221 19.5552M20.0019 17.3311H16.9226C16.6184 17.3311 16.3719 17.5776 16.3719 17.8817V18.9303H20.5526V17.8817C20.5526 17.5776 20.306 17.3311 20.0019 17.3311Z" stroke="black" stroke-width="0.732422" stroke-miterlimit="10" stroke-linecap="round" stroke-linejoin="round"/>
<path d="M23.4221 19.5549L19.0369 21.4045M17.7576 21.3977L13.5022 19.5549M3.09058 9.27388V1.40747C3.09058 0.909912 3.49341 0.50708 3.99097 0.50708H18.1399C18.637 0.50708 19.0403 0.909912 19.0403 1.40747V13.5164M18.3972 22.7439C18.044 22.7439 17.7577 22.4576 17.7577 22.1044V21.2451C17.7577 20.8919 18.044 20.6056 18.3972 20.6056C18.7503 20.6056 19.0367 20.8919 19.0367 21.2451V22.1044C19.0367 22.4576 18.7503 22.7439 18.3972 22.7439Z" stroke="black" stroke-width="0.732422" stroke-miterlimit="10" stroke-linecap="round" stroke-linejoin="round"/>
<path d="M9.3124 2.46338V7.02105H5.04702V2.46338L9.3124 2.46338Z" stroke="black" stroke-width="0.732422" stroke-miterlimit="10" stroke-linecap="round" stroke-linejoin="round"/>
<path d="M11.8715 6.1063H13.7447M11.8715 7.47031H17.0836M11.8715 8.83437H17.0836M11.8715 10.1984H17.0836M11.8715 11.5625H17.0836M7.09908 18.0245C6.80413 17.8251 6.4561 17.7188 6.10005 17.7193C5.11324 17.7193 4.31328 18.5193 4.31328 19.5061C4.31328 20.4929 5.11324 21.2929 6.10005 21.2929C6.50083 21.2929 6.83047 21.1609 7.08067 20.9381C7.13257 20.8918 7.18104 20.8418 7.22569 20.7885M8.29097 17.7194L9.51275 21.2393C9.53833 21.3113 9.64048 21.3106 9.66509 21.2382L10.8319 17.7259M3.09053 12.8337H7.22574M11.8715 3.10757C11.8715 2.75181 12.16 2.46338 12.5157 2.46338H16.4395C16.7953 2.46338 17.0837 2.75181 17.0837 3.10757C17.0837 3.46333 16.7953 3.75176 16.4395 3.75176H12.5157C12.1599 3.75171 11.8715 3.46333 11.8715 3.10757Z" stroke="black" stroke-width="0.732422" stroke-miterlimit="10" stroke-linecap="round" stroke-linejoin="round"/>
</g>
<defs>
<clipPath id="clip0_855_1395">
<rect width="25" height="25" fill="white" transform="translate(0 0.140869)"/>
</clipPath>
</defs>
</svg>
