<svg width="25" height="26" viewBox="0 0 25 26" fill="none" xmlns="http://www.w3.org/2000/svg">
<g clip-path="url(#clip0_855_1378)">
<path d="M9.63535 8.47427H1.82285C0.817676 8.47427 0 7.65659 0 6.65122V1.96372C0 0.958545 0.817676 0.140869 1.82285 0.140869H9.63535C10.6407 0.140869 11.4584 0.958545 11.4584 1.96372V6.65122C11.4584 7.65659 10.6407 8.47427 9.63535 8.47427ZM1.82285 1.70337C1.75382 1.70342 1.68763 1.73087 1.63881 1.77968C1.59 1.8285 1.56255 1.89469 1.5625 1.96372V6.65122C1.56251 6.72028 1.58994 6.78652 1.63876 6.83537C1.68757 6.88422 1.75379 6.9117 1.82285 6.91177H9.63535C9.70444 6.91174 9.7707 6.88428 9.81956 6.83543C9.86841 6.78657 9.89587 6.72031 9.8959 6.65122V1.96372C9.89583 1.89466 9.86836 1.82844 9.8195 1.77963C9.77065 1.73081 9.70442 1.70338 9.63535 1.70337H1.82285ZM9.63535 25.1409H1.82285C0.817676 25.1409 0 24.3232 0 23.318V12.3805C0 11.3751 0.817676 10.5575 1.82285 10.5575H9.63535C10.6407 10.5575 11.4584 11.3751 11.4584 12.3805V23.318C11.4584 24.3232 10.6407 25.1409 9.63535 25.1409ZM1.82285 12.12C1.75379 12.12 1.68757 12.1475 1.63876 12.1964C1.58994 12.2452 1.56251 12.3115 1.5625 12.3805V23.318C1.56255 23.3871 1.59 23.4532 1.63881 23.5021C1.68763 23.5509 1.75382 23.5783 1.82285 23.5784H9.63535C9.70442 23.5784 9.77065 23.5509 9.8195 23.5021C9.86836 23.4533 9.89583 23.3871 9.8959 23.318V12.3805C9.89587 12.3114 9.86841 12.2452 9.81956 12.1963C9.7707 12.1475 9.70444 12.12 9.63535 12.12H1.82285ZM23.1771 25.1409H15.3646C14.3593 25.1409 13.5416 24.3232 13.5416 23.318V18.6305C13.5416 17.6251 14.3593 16.8075 15.3646 16.8075H23.1771C24.1823 16.8075 25 17.6251 25 18.6305V23.318C25 24.3232 24.1823 25.1409 23.1771 25.1409ZM15.3646 18.37C15.2956 18.37 15.2293 18.3975 15.1804 18.4463C15.1316 18.4952 15.1041 18.5614 15.1041 18.6305V23.318C15.1042 23.3871 15.1316 23.4533 15.1805 23.5021C15.2294 23.5509 15.2956 23.5784 15.3646 23.5784H23.1771C23.2462 23.5783 23.3124 23.5509 23.3612 23.5021C23.41 23.4532 23.4374 23.3871 23.4375 23.318V18.6305C23.4375 18.5615 23.4101 18.4952 23.3612 18.4464C23.3124 18.3975 23.2462 18.37 23.1771 18.37H15.3646ZM23.1771 14.7243H15.3646C14.3593 14.7243 13.5416 13.9066 13.5416 12.9012V1.96372C13.5416 0.958545 14.3593 0.140869 15.3646 0.140869H23.1771C24.1823 0.140869 25 0.958545 25 1.96372V12.9012C25 13.9066 24.1823 14.7243 23.1771 14.7243ZM15.3646 1.70337C15.2956 1.70338 15.2294 1.73081 15.1805 1.77963C15.1316 1.82844 15.1042 1.89466 15.1041 1.96372V12.9012C15.1041 12.9703 15.1316 13.0366 15.1804 13.0854C15.2293 13.1343 15.2956 13.1617 15.3646 13.1618H23.1771C23.2462 13.1617 23.3124 13.1342 23.3612 13.0854C23.4101 13.0365 23.4375 12.9703 23.4375 12.9012V1.96372C23.4374 1.89469 23.41 1.8285 23.3612 1.77968C23.3124 1.73087 23.2462 1.70342 23.1771 1.70337H15.3646Z" fill="#262626"/>
</g>
<defs>
<clipPath id="clip0_855_1378">
<rect width="25" height="25" fill="white" transform="translate(0 0.140869)"/>
</clipPath>
</defs>
</svg>
