<svg width="17" height="18" viewBox="0 0 17 18" fill="none" xmlns="http://www.w3.org/2000/svg">
<path d="M10.7833 6.49995L10.495 13.9999M6.505 13.9999L6.21667 6.49995M14.5233 3.82495C14.8083 3.86828 15.0917 3.91411 15.375 3.96328M14.5233 3.82495L13.6333 15.3941C13.597 15.8651 13.3842 16.3051 13.0375 16.626C12.6908 16.9469 12.2358 17.1251 11.7633 17.1249H5.23667C4.76425 17.1251 4.30919 16.9469 3.96248 16.626C3.61578 16.3051 3.40299 15.8651 3.36667 15.3941L2.47667 3.82495M14.5233 3.82495C13.5616 3.67954 12.5948 3.56919 11.625 3.49411M2.47667 3.82495C2.19167 3.86745 1.90833 3.91328 1.625 3.96245M2.47667 3.82495C3.43844 3.67955 4.4052 3.56919 5.375 3.49411M11.625 3.49411V2.73078C11.625 1.74745 10.8667 0.927446 9.88333 0.896613C8.96135 0.867145 8.03865 0.867145 7.11667 0.896613C6.13333 0.927446 5.375 1.74828 5.375 2.73078V3.49411M11.625 3.49411C9.54477 3.33334 7.45523 3.33334 5.375 3.49411" stroke="#505050" stroke-width="1.5" stroke-linecap="round" stroke-linejoin="round"/>
</svg>
