<svg width="20" height="20" viewBox="0 0 20 20" fill="none" xmlns="http://www.w3.org/2000/svg">
<g clip-path="url(#clip0_638_2081)">
<path d="M14.375 19.9983H2.29172C1.02754 19.9983 0 18.9707 0 17.7065V5.62326C0 4.35908 1.02754 3.33154 2.29172 3.33154H9.375C9.72 3.33154 10 3.61154 10 3.95654C10 4.30154 9.72 4.58154 9.375 4.58154H2.29172C1.7175 4.58154 1.25 5.04908 1.25 5.62326V17.7065C1.25 18.2808 1.71754 18.7483 2.29172 18.7483H14.375C14.9492 18.7483 15.4167 18.2807 15.4167 17.7065V10.6233C15.4167 10.2783 15.6967 9.99826 16.0417 9.99826C16.3867 9.99826 16.6667 10.2775 16.6667 10.6233V17.7065C16.6667 18.9707 15.6392 19.9983 14.375 19.9983Z" fill="#505050"/>
<path d="M7.31023 13.3133C7.14605 13.3133 6.98598 13.2483 6.86848 13.1301C6.72016 12.9825 6.65683 12.7699 6.69773 12.5658L7.28687 9.61916C7.31095 9.4982 7.37037 9.38711 7.45762 9.29994L16.0886 0.67002C16.9818 -0.22334 18.4353 -0.22334 19.3294 0.67002C19.7618 1.10244 20.0002 1.67756 20.0002 2.29006C20.0002 2.90256 19.7618 3.47748 19.3285 3.9101L10.6986 12.5409C10.6115 12.6283 10.5004 12.6877 10.3794 12.7117L7.43351 13.3008C7.39262 13.3092 7.35098 13.3133 7.31023 13.3133ZM8.47519 10.0501L8.10762 11.8917L9.94848 11.5233L18.4451 3.02674C18.6419 2.82916 18.7502 2.56838 18.7502 2.29006C18.7502 2.01174 18.6419 1.7508 18.4452 1.55334C18.0402 1.14748 17.3793 1.14748 16.972 1.55334L8.47519 10.0501Z" fill="#505050"/>
<path d="M17.708 5.27266C17.5481 5.27266 17.388 5.21176 17.2664 5.08922L14.9097 2.73176C14.6655 2.48762 14.6655 2.0918 14.9097 1.84766C15.1538 1.60352 15.5496 1.60352 15.7939 1.84766L18.1505 4.20512C18.3946 4.44926 18.3946 4.84508 18.1505 5.08922C18.0331 5.20657 17.874 5.27254 17.708 5.27266Z" fill="#505050"/>
</g>
<defs>
<clipPath id="clip0_638_2081">
<rect width="20" height="20" fill="white"/>
</clipPath>
</defs>
</svg>
