<svg width="24" height="24" viewBox="0 0 24 24" fill="none" xmlns="http://www.w3.org/2000/svg">
<path d="M23.4676 4.04729L12.2716 0.0472893C12.0948 -0.0151121 11.902 -0.0151121 11.7252 0.0472893L0.532 4.04729C0.377153 4.10311 0.243292 4.20533 0.148672 4.34001C0.0540526 4.4747 0.00328074 4.63529 0.00328074 4.79989C0.00328074 4.96449 0.0540526 5.12508 0.148672 5.25977C0.243292 5.39445 0.377153 5.49667 0.532 5.55249L6 7.50609V10.0001C6 11.5553 11.386 11.6001 12 11.6001C12.614 11.6001 18 11.5553 18 10.0001V7.50609L19.2 7.08009V8.00009C19.2 8.21226 19.2843 8.41575 19.4343 8.56577C19.5843 8.7158 19.7878 8.80009 20 8.80009H20.8C21.0122 8.80009 21.2157 8.7158 21.3657 8.56577C21.5157 8.41575 21.6 8.21226 21.6 8.00009V6.80009C21.5988 6.61486 21.5541 6.4325 21.4696 6.26769L23.4696 5.55249C23.6244 5.49667 23.7583 5.39445 23.8529 5.25977C23.9475 5.12508 23.9983 4.96449 23.9983 4.79989C23.9983 4.63529 23.9475 4.4747 23.8529 4.34001C23.7583 4.20533 23.6244 4.10311 23.4696 4.04729H23.4676ZM17.2 9.12009C15.6764 8.42649 12.466 8.40009 12 8.40009C11.534 8.40009 8.3236 8.42649 6.8 9.12009V5.63529C7.04 5.32729 8.9264 4.80009 12 4.80009C15.0736 4.80009 16.96 5.32729 17.2 5.63529V9.12009ZM12 10.8001C9.04 10.8001 7.1812 10.3113 6.8336 10.0001C7.1812 9.68889 9.0408 9.20009 12 9.20009C14.9592 9.20009 16.8188 9.68889 17.1664 10.0001C16.8188 10.3113 14.96 10.8001 12 10.8001ZM19.3876 6.16209L18 6.65689V5.60009C18 4.04489 12.614 4.00009 12 4.00009C11.386 4.00009 6 4.04489 6 5.60009V6.65649L0.8 4.80009L12.0056 0.800089L20 3.65689V5.67369C19.7471 5.76357 19.5315 5.9355 19.3876 6.16209ZM20.8 8.00009H20V6.80009C20 6.694 20.0421 6.59226 20.1172 6.51725C20.1922 6.44223 20.2939 6.40009 20.4 6.40009C20.5061 6.40009 20.6078 6.44223 20.6828 6.51725C20.7579 6.59226 20.8 6.694 20.8 6.80009V8.00009ZM20.8 5.65769V3.94289L23.2 4.80009L20.8 5.65769ZM22.8 12.4001C22.776 12.4001 22.752 12.4021 22.7284 12.4065C19.1793 12.9583 15.5916 13.2237 12 13.2001C8.408 13.2237 4.8208 12.9581 1.2716 12.4065C1.24794 12.4025 1.224 12.4003 1.2 12.4001C0.92 12.4001 0 12.7173 0 16.8001C0 20.8829 0.92 21.2001 1.2 21.2001C1.224 21.1997 1.248 21.1973 1.2716 21.1929C3.99868 20.7609 6.75137 20.51 9.5116 20.4417L8.7308 22.3145C8.67215 22.4611 8.65838 22.6219 8.69126 22.7763C8.72414 22.9308 8.80217 23.072 8.91546 23.182C9.02874 23.292 9.17216 23.3659 9.32752 23.3943C9.48287 23.4226 9.64315 23.4042 9.788 23.3413L10.094 23.2105L10.2264 23.5149C10.2876 23.6592 10.39 23.7823 10.5209 23.8686C10.6518 23.955 10.8052 24.0007 10.962 24.0001H10.972C11.1299 23.9989 11.2839 23.9508 11.4144 23.8619C11.545 23.773 11.6462 23.6474 11.7052 23.5009L12.4 21.8377L13.0924 23.4945C13.1509 23.6423 13.2521 23.7694 13.3831 23.8594C13.5141 23.9495 13.669 23.9984 13.828 24.0001H13.84C13.9958 24.0007 14.1483 23.9556 14.2785 23.8702C14.4088 23.7849 14.5112 23.6631 14.5728 23.5201L14.7064 23.2133L15.0076 23.3425C15.153 23.4067 15.3143 23.4259 15.4708 23.3978C15.6273 23.3696 15.7717 23.2953 15.8856 23.1844C15.9996 23.0735 16.0777 22.9311 16.1101 22.7754C16.1424 22.6198 16.1275 22.458 16.0672 22.3109L15.3016 20.4749C17.7904 20.5629 20.2712 20.8033 22.7304 21.1949C22.7532 21.1989 22.7768 21.2005 22.8 21.2001C23.08 21.2001 24 20.8829 24 16.8001C24 12.7173 23.08 12.4001 22.8 12.4001ZM13.28 13.9881C13.4461 14.5989 13.5429 15.2264 13.5684 15.8589C13.1229 15.6517 12.6304 15.5665 12.1412 15.612C11.652 15.6575 11.1837 15.832 10.784 16.1177C10.7635 15.3994 10.6715 14.6849 10.5092 13.9849C11.4327 14.0039 12.3565 14.005 13.28 13.9881ZM12.4 20.4001C11.8696 20.4001 11.3609 20.1894 10.9858 19.8143C10.6107 19.4392 10.4 18.9305 10.4 18.4001C10.4 17.8697 10.6107 17.3609 10.9858 16.9859C11.3609 16.6108 11.8696 16.4001 12.4 16.4001C12.9304 16.4001 13.4391 16.6108 13.8142 16.9859C14.1893 17.3609 14.4 17.8697 14.4 18.4001C14.4 18.9305 14.1893 19.4392 13.8142 19.8143C13.4391 20.1894 12.9304 20.4001 12.4 20.4001ZM1.2 13.4001C1.50649 14.5063 1.64139 15.653 1.6 16.8001C1.64139 17.9472 1.50649 19.0939 1.2 20.2001C0.893514 19.0939 0.75861 17.9472 0.8 16.8001C0.75861 15.653 0.893514 14.5063 1.2 13.4001ZM2.008 20.2681C2.2268 19.6337 2.4 18.5721 2.4 16.8001C2.4 15.0281 2.2268 13.9665 2.0076 13.3313C4.54944 13.6823 7.10861 13.8937 9.6736 13.9645C9.9136 14.8901 10.0232 15.8445 10 16.8001C10 16.8581 10 16.9133 9.9976 16.9689C9.76128 17.3611 9.62583 17.8057 9.60335 18.2631C9.58088 18.7204 9.67208 19.1762 9.8688 19.5897L9.8512 19.6321C7.2272 19.6961 4.6084 19.9089 2.008 20.2689V20.2681ZM10.9628 23.2001L10.6708 22.5281C10.6286 22.4312 10.5498 22.3549 10.4515 22.3159C10.3533 22.2769 10.2436 22.2784 10.1464 22.3201L9.4732 22.6177L10.4112 20.3689C10.7963 20.7591 11.2876 21.0276 11.824 21.1409L10.9628 23.2001ZM14.6536 22.3201C14.5564 22.2784 14.4468 22.2769 14.3485 22.3159C14.2502 22.3549 14.1714 22.4312 14.1292 22.5281L13.8332 23.1933L12.9756 21.1401C13.5124 21.0267 14.0041 20.7581 14.3896 20.3677L15.3256 22.6077L14.6536 22.3201ZM22.72 20.3801C20.1501 19.9846 17.5588 19.7441 14.96 19.6601L14.9316 19.5913C15.1771 19.0739 15.2571 18.4934 15.1606 17.9289C15.0641 17.3644 14.7959 16.8433 14.3924 16.4369C14.3893 15.6073 14.2935 14.7808 14.1068 13.9725C16.9908 13.9081 19.8684 13.6565 22.72 13.2197C22.9056 13.5349 23.2 14.7817 23.2 16.8001C23.2 18.8185 22.9036 20.0649 22.72 20.3801Z" fill="black"/>
</svg>
