<svg width="23" height="25" viewBox="0 0 23 25" fill="none" xmlns="http://www.w3.org/2000/svg">
<path d="M10.6667 3.70159C4.75758 4.34553 2.14394 11.6183 6.38636 15.8607C7.33333 16.8077 7.78788 17.944 7.82576 19.2698C7.33333 19.4592 6.95455 19.9137 6.95455 20.444C6.95455 21.0501 7.37121 21.5425 7.93939 21.6561C7.86364 21.8077 7.86364 21.9592 7.86364 22.1107C7.86364 22.7546 8.39394 23.2849 9.03788 23.2849H9.60606C9.75758 24.1183 10.5152 24.7243 11.3864 24.7243H11.5758C12.447 24.7243 13.1667 24.1183 13.3561 23.2849H13.9242C14.5682 23.2849 15.0985 22.7546 15.0985 22.0728C15.0985 21.9213 15.0606 21.7698 15.0227 21.6183C15.5909 21.5046 16.0455 21.0122 16.0455 20.3683C16.0455 19.838 15.7045 19.3455 15.2121 19.194C15.25 17.9061 15.7424 16.7319 16.7273 15.7092C21.2348 11.088 17.4848 2.94402 10.6667 3.70159ZM11.5758 24.0046H11.3864C10.9318 24.0046 10.553 23.7395 10.4015 23.3228H12.5606C12.4091 23.7016 12.0303 24.0046 11.5758 24.0046ZM13.9242 22.5652H9.07576C8.84848 22.5652 8.65909 22.3758 8.65909 22.1107C8.65909 21.8834 8.84848 21.694 9.07576 21.694H13.9242C14.1515 21.694 14.3409 21.8834 14.3409 22.1486C14.3409 22.3758 14.1515 22.5652 13.9242 22.5652ZM14.7576 20.9364H8.20455C7.93939 20.9364 7.71212 20.7092 7.71212 20.444C7.71212 20.1789 7.93939 19.9516 8.20455 19.9516H14.7576C15.0227 19.9516 15.25 20.1789 15.25 20.444C15.25 20.7092 15.0227 20.9364 14.7576 20.9364ZM16.1212 15.2546C15.0227 16.391 14.4545 17.7167 14.4167 19.194H11.8788V15.5577H12.1439C12.3333 15.5577 12.4848 15.4061 12.5227 15.2167L12.6364 14.3455C12.8258 14.2698 12.9773 14.2319 13.1667 14.1183L13.8864 14.6486C14.0379 14.7622 14.2652 14.7622 14.3788 14.6107L15.3258 13.7016C15.4773 13.5501 15.4773 13.3607 15.3636 13.2092L14.8333 12.4895C14.9091 12.338 14.9848 12.1486 15.0606 11.9592L15.9318 11.8455C16.1212 11.8077 16.2727 11.6561 16.2727 11.4667V10.141C16.2727 9.95159 16.1212 9.80008 15.9318 9.7622L15.0606 9.64856C14.9848 9.45917 14.947 9.30765 14.8333 9.11826L15.3636 8.39856C15.4773 8.24705 15.4773 8.01978 15.3258 7.90614L14.3788 6.95917C14.2273 6.80765 14.0379 6.80765 13.8864 6.92129L13.1667 7.45159C12.9773 7.37584 12.8258 7.30008 12.6364 7.22432L12.5227 6.35311C12.4848 6.16371 12.3333 6.0122 12.1439 6.0122H10.8182C10.6288 6.0122 10.4773 6.16371 10.4394 6.35311L10.3258 7.22432C10.1364 7.30008 9.98485 7.33796 9.79545 7.45159L9.07576 6.92129C8.92424 6.80765 8.69697 6.80765 8.58333 6.95917L7.67424 7.86826C7.52273 8.01978 7.52273 8.20917 7.63636 8.36068L8.16667 9.08038C8.09091 9.2319 8.01515 9.42129 7.93939 9.61068L7.06818 9.72432C6.87879 9.7622 6.72727 9.91371 6.72727 10.1031V11.4289C6.72727 11.6183 6.87879 11.7698 7.06818 11.8077L7.93939 11.9213C8.01515 12.1107 8.05303 12.2622 8.16667 12.4516L7.63636 13.1713C7.52273 13.3228 7.52273 13.5501 7.67424 13.6637L8.58333 14.5728C8.73485 14.7243 8.92424 14.7243 9.07576 14.6107L9.79545 14.0804C9.98485 14.1561 10.1364 14.2319 10.3258 14.3077L10.4394 15.1789C10.4773 15.3683 10.6288 15.5198 10.8182 15.5198H11.1212V19.1561H8.58333C8.54545 17.6789 8.01515 16.3531 6.95455 15.2925C3.05303 11.5046 5.55303 5.02735 10.7424 4.45917C16.8409 3.77735 20.2121 11.0501 16.1212 15.2546ZM8.92424 12.338C8.77273 12.0728 8.65909 11.8077 8.58333 11.5425C8.54545 11.391 8.43182 11.2774 8.2803 11.2774L7.48485 11.1258V10.4819L8.2803 10.3683C8.43182 10.3304 8.54545 10.2167 8.58333 10.1031C8.65909 9.83796 8.77273 9.53493 8.92424 9.30765C9 9.19402 9 9.00462 8.88636 8.89099L8.39394 8.24705L8.84848 7.7925L9.49242 8.28493C9.60606 8.36068 9.79545 8.39856 9.90909 8.32281C10.1742 8.17129 10.4394 8.05765 10.7045 7.9819C10.8561 7.94402 10.9697 7.83038 10.9697 7.67887L11.0833 6.88341H11.7273L11.8409 7.67887C11.8788 7.83038 11.9924 7.94402 12.1061 7.9819C12.3712 8.05765 12.6742 8.17129 12.9015 8.32281C13.0152 8.39856 13.2045 8.39856 13.3182 8.28493L13.9621 7.7925L14.4167 8.24705L14.0758 8.85311C14 8.96675 13.9621 9.15614 14.0379 9.26978C14.1894 9.53493 14.303 9.80008 14.3788 10.0652C14.4167 10.2167 14.5303 10.3304 14.6818 10.3304L15.4773 10.444V11.1258L14.6818 11.2395C14.5303 11.2774 14.4167 11.391 14.3788 11.5046C14.303 11.7698 14.1894 12.0728 14.0379 12.3001C13.9621 12.4137 13.9621 12.6031 14.0758 12.7167L14.5303 13.3986L14.0758 13.8531L13.4318 13.3607C13.3182 13.2849 13.1288 13.247 13.0152 13.3228C12.75 13.4743 12.4848 13.588 12.2197 13.6637C12.0682 13.7016 11.9545 13.8152 11.9545 13.9667L11.8409 14.7622H11.197L11.0833 13.9667C11.0455 13.8152 10.9318 13.7016 10.8182 13.6637C10.553 13.588 10.25 13.4743 10.0227 13.3228C9.90909 13.247 9.7197 13.247 9.60606 13.3607L8.96212 13.8531L8.43182 13.3986L8.92424 12.7546C9 12.6031 9.03788 12.4516 8.92424 12.338ZM11.803 2.86826C12.0303 2.86826 12.1818 2.71674 12.1818 2.48947V0.898563C12.1818 0.671291 12.0303 0.519775 11.803 0.519775C11.5758 0.519775 11.4242 0.671291 11.4242 0.898563V2.48947C11.4242 2.67887 11.5758 2.86826 11.803 2.86826ZM6.91667 3.73947C7.0303 3.92887 7.25758 3.96674 7.44697 3.89099C7.63636 3.77735 7.67424 3.55008 7.59849 3.36068L6.80303 1.99705C6.68939 1.80765 6.46212 1.76978 6.27273 1.84553C6.08333 1.95917 6.04545 2.18644 6.12121 2.37584L6.91667 3.73947ZM4.03788 6.39099L2.67424 5.59553C2.48485 5.4819 2.25758 5.55765 2.14394 5.74705C2.0303 5.93644 2.10606 6.16371 2.29545 6.27735L3.65909 7.07281C3.84849 7.18644 4.07576 7.11068 4.18939 6.92129C4.26515 6.7319 4.18939 6.50462 4.03788 6.39099ZM2.86364 11.2016C2.86364 10.9743 2.71212 10.8228 2.48485 10.8228H0.89394C0.666667 10.8228 0.515152 10.9743 0.515152 11.2016C0.515152 11.4289 0.666667 11.5804 0.89394 11.5804H2.48485C2.67424 11.5804 2.86364 11.4289 2.86364 11.2016ZM3.35606 15.444L1.99242 16.2395C1.80303 16.3531 1.76515 16.5804 1.84091 16.7698C1.95455 16.9592 2.18182 16.997 2.37121 16.9213L3.73485 16.1258C3.92424 16.0122 3.96212 15.7849 3.88636 15.5955C3.77273 15.3683 3.54545 15.3304 3.35606 15.444ZM20.7045 16.7319L19.3409 15.9364C19.1515 15.8228 18.9242 15.8986 18.8106 16.088C18.697 16.2774 18.7727 16.5046 18.9621 16.6183L20.3258 17.4137C20.5152 17.5273 20.7424 17.4516 20.8561 17.2622C20.9697 17.0728 20.8939 16.8455 20.7045 16.7319ZM22.1061 11.4289H20.5152C20.2879 11.4289 20.1364 11.5804 20.1364 11.8077C20.1364 12.0349 20.2879 12.1864 20.5152 12.1864H22.1061C22.3333 12.1864 22.4848 12.0349 22.4848 11.8077C22.4848 11.5804 22.2955 11.4289 22.1061 11.4289Z" fill="black"/>
<path d="M19.6439 7.56531L21.0076 6.76986C21.197 6.65622 21.2348 6.42895 21.1591 6.23955C21.0455 6.05016 20.8182 6.01228 20.6288 6.08804L19.2652 6.88349C19.0758 6.99713 19.0379 7.2244 19.1136 7.4138C19.2273 7.60319 19.4545 7.67895 19.6439 7.56531ZM16.0833 4.15622C16.2727 4.26986 16.5 4.1941 16.6136 4.0047L17.4091 2.64107C17.5227 2.45167 17.447 2.2244 17.2576 2.11076C17.0682 1.99713 16.8409 2.07289 16.7273 2.26228L15.9318 3.62592C15.8182 3.81531 15.8939 4.04258 16.0833 4.15622ZM11.5 13.0199C12.7121 13.0199 13.7348 12.035 13.7348 10.785C13.7348 9.53501 12.75 8.55016 11.5 8.55016C10.25 8.55016 9.26515 9.53501 9.26515 10.785C9.26515 12.035 10.25 13.0199 11.5 13.0199ZM11.5 9.34561C12.2955 9.34561 12.9773 9.98955 12.9773 10.8229C12.9773 11.6562 12.2955 12.2623 11.5 12.2623C10.7045 12.2623 10.0227 11.6183 10.0227 10.785C10.0227 9.95167 10.6667 9.34561 11.5 9.34561Z" fill="black"/>
</svg>
