<svg width="19" height="26" viewBox="0 0 19 26" fill="none" xmlns="http://www.w3.org/2000/svg">
<path d="M9.5 12.6526C9.23047 12.6526 9.01172 12.8713 9.01172 13.1409C9.01172 13.4104 9.23047 13.6292 9.5 13.6292C9.76953 13.6292 9.98828 13.4104 9.98828 13.1409C9.98828 12.8713 9.76953 12.6526 9.5 12.6526ZM9.5 16.5588C9.23047 16.5588 9.01172 16.7776 9.01172 17.0471C9.01172 17.3167 9.23047 17.5354 9.5 17.5354C9.76953 17.5354 9.98828 17.3167 9.98828 17.0471C9.98828 16.7776 9.76953 16.5588 9.5 16.5588ZM9.5 20.6116C9.23047 20.6116 9.01172 20.8303 9.01172 21.0999C9.01172 21.3694 9.23047 21.5881 9.5 21.5881C9.76953 21.5881 9.98828 21.3694 9.98828 21.0999C9.98828 20.8303 9.76953 20.6116 9.5 20.6116Z" fill="black"/>
<path d="M18.7765 5.16499C18.7762 5.15601 18.7759 5.14702 18.7751 5.13809C18.7744 5.13027 18.7732 5.12266 18.7722 5.11494C18.7711 5.10688 18.7701 5.09888 18.7686 5.09087C18.767 5.08276 18.7651 5.0749 18.7632 5.06694C18.7614 5.05943 18.7595 5.05196 18.7574 5.04453C18.7551 5.03667 18.7524 5.029 18.7498 5.02129C18.7473 5.01388 18.7446 5.00654 18.7417 4.99927C18.7387 4.99196 18.7355 4.98473 18.7322 4.97759C18.7289 4.97024 18.7254 4.96298 18.7217 4.95581C18.7181 4.94888 18.7141 4.94219 18.7102 4.9355C18.7061 4.92852 18.702 4.92148 18.6975 4.91465C18.6931 4.90786 18.6882 4.90132 18.6834 4.89478C18.6789 4.88848 18.6744 4.88218 18.6695 4.87607C18.6639 4.86909 18.6579 4.86255 18.6519 4.85591C18.6481 4.85166 18.6447 4.84717 18.6407 4.84302L14.7345 0.790283C14.7334 0.78916 14.7322 0.788281 14.7312 0.787158C14.7248 0.780664 14.718 0.774609 14.7113 0.768506C14.706 0.763672 14.7008 0.758643 14.6954 0.754102C14.6893 0.748975 14.6828 0.744385 14.6764 0.739551C14.6699 0.734668 14.6636 0.729541 14.657 0.725049C14.6513 0.721191 14.6453 0.717871 14.6395 0.714258C14.6318 0.709521 14.6243 0.704541 14.6165 0.700293C14.61 0.696777 14.6033 0.693896 14.5967 0.690674C14.5892 0.687012 14.5817 0.683008 14.574 0.679736C14.5655 0.676123 14.5566 0.673193 14.5478 0.67002C14.5418 0.667871 14.5359 0.665332 14.5298 0.663428C14.5209 0.660645 14.5117 0.658545 14.5026 0.65625C14.4963 0.654687 14.4901 0.652734 14.4837 0.651416C14.4758 0.649756 14.4676 0.64873 14.4596 0.647461C14.4518 0.64624 14.444 0.644727 14.4361 0.643896C14.4291 0.643115 14.4219 0.642969 14.4148 0.64248C14.4057 0.641895 14.3965 0.641162 14.3874 0.641113C14.3857 0.641064 14.3843 0.640869 14.3828 0.640869H1.6875C0.879785 0.640869 0.222656 1.298 0.222656 2.10571V24.176C0.222656 24.9837 0.879785 25.6409 1.6875 25.6409H17.3125C18.1202 25.6409 18.7773 24.9837 18.7773 24.176V5.18188C18.7773 5.17617 18.7767 5.17065 18.7765 5.16499ZM14.8711 2.33936L17.1402 4.6936H15.3594C15.0901 4.6936 14.8711 4.47456 14.8711 4.20532V2.33936ZM17.8008 24.176C17.8008 24.4453 17.5817 24.6643 17.3125 24.6643H1.6875C1.41826 24.6643 1.19922 24.4453 1.19922 24.176V2.10571C1.19922 1.83647 1.41826 1.61743 1.6875 1.61743H13.8945V4.20532C13.8945 5.01304 14.5517 5.67017 15.3594 5.67017H17.8008V24.176Z" fill="black"/>
<path d="M6.91558 11.819C6.824 11.7275 6.6998 11.676 6.5703 11.676C6.4408 11.676 6.31661 11.7275 6.22505 11.8191L4.61719 13.4269L3.98589 12.7956C3.79517 12.605 3.48608 12.605 3.29531 12.7956C3.10464 12.9863 3.10464 13.2955 3.29531 13.4862L4.27187 14.4628C4.36729 14.5581 4.49219 14.6057 4.61719 14.6057C4.74219 14.6057 4.86709 14.5581 4.96245 14.4627L6.91558 12.5096C7.10625 12.3189 7.10625 12.0097 6.91558 11.819ZM15.3594 12.6526H11.4531C11.1835 12.6526 10.9648 12.8712 10.9648 13.1409C10.9648 13.4106 11.1835 13.6292 11.4531 13.6292H15.3594C15.629 13.6292 15.8477 13.4106 15.8477 13.1409C15.8477 12.8712 15.629 12.6526 15.3594 12.6526ZM6.91558 15.7253C6.824 15.6337 6.6998 15.5823 6.5703 15.5823C6.4408 15.5823 6.31661 15.6337 6.22505 15.7253L4.61719 17.3332L3.98589 16.7019C3.79517 16.5112 3.48608 16.5112 3.29531 16.7019C3.10464 16.8926 3.10464 17.2017 3.29531 17.3925L4.27187 18.369C4.36729 18.4643 4.49219 18.512 4.61719 18.512C4.74219 18.512 4.86709 18.4643 4.96245 18.369L6.91558 16.4159C7.10625 16.2252 7.10625 15.916 6.91558 15.7253ZM15.3594 16.5589H11.4531C11.1835 16.5589 10.9648 16.7775 10.9648 17.0471C10.9648 17.3168 11.1835 17.5354 11.4531 17.5354H15.3594C15.629 17.5354 15.8477 17.3168 15.8477 17.0471C15.8477 16.7775 15.629 16.5589 15.3594 16.5589ZM6.91558 19.778C6.824 19.6864 6.6998 19.635 6.5703 19.635C6.4408 19.635 6.31661 19.6865 6.22505 19.7781L4.61719 21.3859L3.98589 20.7546C3.79517 20.5639 3.48608 20.5639 3.29531 20.7546C3.10464 20.9453 3.10464 21.2545 3.29531 21.4452L4.27187 22.4218C4.36729 22.5171 4.49219 22.5647 4.61719 22.5647C4.74219 22.5647 4.86709 22.5171 4.96245 22.4217L6.91558 20.4686C7.10625 20.2779 7.10625 19.9687 6.91558 19.778ZM15.3594 20.6116H11.4531C11.1835 20.6116 10.9648 20.8302 10.9648 21.0999C10.9648 21.3696 11.1835 21.5882 11.4531 21.5882H15.3594C15.629 21.5882 15.8477 21.3696 15.8477 21.0999C15.8477 20.8302 15.629 20.6116 15.3594 20.6116ZM8.00024 8.90682L7.21572 6.94559L7.21538 6.94476L6.04707 4.02405C6.01085 3.93343 5.9483 3.85575 5.86749 3.80102C5.78669 3.7463 5.69133 3.71705 5.59374 3.71704C5.49615 3.71704 5.4008 3.74628 5.31998 3.80099C5.23917 3.85571 5.17661 3.93339 5.14038 4.024L3.97207 6.94471L3.97173 6.94554L3.18721 8.90677C3.08711 9.15721 3.20889 9.44134 3.45928 9.54153C3.70957 9.64173 3.99375 9.5199 4.09399 9.26951L4.75249 7.62332H6.43506L7.09351 9.26951C7.12976 9.36016 7.19234 9.43786 7.27318 9.49259C7.35401 9.54733 7.4494 9.57659 7.54702 9.57659C7.60737 9.57659 7.66875 9.56536 7.72822 9.54153C7.97861 9.44139 8.10039 9.15721 8.00024 8.90682ZM5.14307 6.64676L5.59375 5.5201L6.04439 6.64676H5.14307ZM10.4766 4.69363H9.98828V4.20535C9.98828 3.93567 9.76963 3.71707 9.5 3.71707C9.23037 3.71707 9.01172 3.93567 9.01172 4.20535V4.69363H8.52344C8.25381 4.69363 8.03516 4.91224 8.03516 5.18191C8.03516 5.45159 8.25381 5.6702 8.52344 5.6702H9.01172V6.15848C9.01172 6.42816 9.23037 6.64676 9.5 6.64676C9.76963 6.64676 9.98828 6.42816 9.98828 6.15848V5.6702H10.4766C10.7462 5.6702 10.9648 5.45159 10.9648 5.18191C10.9648 4.91224 10.7462 4.69363 10.4766 4.69363Z" fill="black"/>
</svg>
