<svg width="60" height="61" viewBox="0 0 60 61" fill="none" xmlns="http://www.w3.org/2000/svg">
<g clip-path="url(#clip0_867_5749)">
<path d="M29.7186 39.6278C28.0386 39.6278 26.6719 40.9946 26.6719 42.6746C26.6719 44.3546 28.0387 45.7213 29.7186 45.7213C31.3985 45.7213 32.7654 44.3546 32.7654 42.6746C32.7654 40.9946 31.3987 39.6278 29.7186 39.6278ZM29.7186 43.3777C29.3309 43.3777 29.0155 43.0624 29.0155 42.6746C29.0155 42.2868 29.3309 41.9715 29.7186 41.9715C30.1064 41.9715 30.4218 42.2868 30.4218 42.6746C30.4218 43.0624 30.1064 43.3777 29.7186 43.3777ZM39.1246 35.7441C38.9043 35.5251 38.6067 35.4017 38.2961 35.4006C37.9879 35.4006 37.6855 35.526 37.4675 35.7441C37.2481 35.964 37.1247 36.2618 37.1242 36.5725C37.1246 36.8832 37.2481 37.1811 37.4675 37.401C37.6878 37.62 37.9855 37.7434 38.2961 37.7444C38.6043 37.7444 38.9066 37.6191 39.1246 37.401C39.3436 37.1808 39.4669 36.8831 39.4679 36.5725C39.4679 36.2643 39.3425 35.962 39.1246 35.7441Z" fill="black"/>
<path d="M54.1391 17.3735H52.8757L36.3458 0.843569C35.8882 0.385952 35.1461 0.385952 34.6886 0.843569L30.4539 5.07837L13.5175 0.540288C12.8923 0.372593 12.2496 0.743726 12.0821 1.36892L7.79402 17.3735H4.92176C2.20793 17.3735 0 19.5813 0 22.2952C0 22.3602 0.00246094 22.4248 0.00492187 22.4893C0.00192003 22.5217 0.000277962 22.5542 0 22.5868V54.6408C0 57.8715 2.62852 60.5 5.85926 60.5H47.8111C47.8293 60.5 47.8471 60.4988 47.8652 60.4986H54.139C57.3697 60.4986 59.9981 57.8702 59.9981 54.6393V23.2326C59.9982 20.0017 57.3698 17.3735 54.1391 17.3735ZM53.0921 19.7171H54.1391C56.0776 19.7171 57.6546 21.2942 57.6546 23.2326V32.6243C57.6546 34.1559 56.4086 35.4018 54.8771 35.4018H53.6704V30.7324C53.6704 27.5424 51.1076 24.9415 47.933 24.8761L53.0921 19.7171ZM31.6328 7.214L31.6331 7.21353L35.5173 3.32935L50.8414 18.6535L44.6598 24.8351H42.516L45.32 22.031C45.7777 21.5733 45.7777 20.8313 45.32 20.3737C44.3714 19.4251 44.3714 17.8817 45.32 16.9331C45.7777 16.4754 45.7777 15.7334 45.32 15.2757L38.8949 8.85076C38.4373 8.39314 37.6952 8.39314 37.2375 8.85076C36.2889 9.79951 34.7454 9.79951 33.7969 8.85076C33.3393 8.39314 32.5971 8.39314 32.1396 8.85076L16.1552 24.8352H14.0114L31.6328 7.214ZM28.1841 20.4325C25.5089 20.4325 23.2676 22.3215 22.7209 24.8352H19.4695L33.071 11.2338C34.5723 12.1286 36.4621 12.1286 37.9634 11.2338L42.9369 16.2073C42.0422 17.7085 42.0422 19.5985 42.9369 21.0997L39.2013 24.8352H33.6472C33.1005 22.3213 30.8593 20.4325 28.1841 20.4325ZM31.2059 24.8352H25.1627C25.6383 23.6309 26.8131 22.7763 28.1843 22.7763C29.5555 22.7763 30.7302 23.6309 31.2059 24.8352ZM12.7729 22.7593L15.8762 11.1773C16.7271 11.191 17.5736 10.9737 18.3316 10.5358C19.0898 10.0981 19.6999 9.47572 20.1149 8.73005L25.3889 10.1432L17.7353 17.7969L12.7729 22.7593ZM14.0428 3.1074L28.5402 6.99193L27.3026 8.22966L19.7287 6.20021C19.5801 6.16032 19.4251 6.15012 19.2725 6.17018C19.1199 6.19024 18.9727 6.24018 18.8394 6.31713C18.7062 6.39409 18.5893 6.49655 18.4957 6.61867C18.402 6.74079 18.3333 6.88017 18.2936 7.02884C18.2116 7.33778 18.0693 7.62741 17.8747 7.88098C17.6801 8.13455 17.4372 8.34702 17.16 8.50611C16.8836 8.66668 16.5781 8.77083 16.2612 8.81255C15.9443 8.85427 15.6222 8.83272 15.3137 8.74916C14.6888 8.58158 14.046 8.95259 13.8785 9.57779L9.78 24.8732H8.21062L14.0428 3.1074ZM4.92176 19.7171H7.16578L5.78414 24.8732H4.92164C3.50004 24.8732 2.34363 23.7167 2.34363 22.2952C2.34375 20.8736 3.50039 19.7171 4.92176 19.7171ZM57.6546 54.6393C57.6546 56.5778 56.0775 58.1548 54.1391 58.1548H52.4964C53.2331 57.1751 53.6704 55.9581 53.6704 54.6407V49.9326H54.3735C55.5974 49.9326 56.7302 49.5385 57.6546 48.8722V54.6393ZM57.6546 44.3078C57.6546 46.1171 56.1826 47.589 54.3735 47.589H29.7648C27.051 47.589 24.843 45.3811 24.843 42.6672C24.843 39.9533 27.0509 37.7454 29.7648 37.7454H33.3163C33.9635 37.7454 34.4882 37.2207 34.4882 36.5736C34.4882 35.9265 33.9635 35.4017 33.3163 35.4017H29.7648C25.7586 35.4017 22.4994 38.6609 22.4994 42.6671C22.4994 46.6733 25.7586 49.9325 29.7648 49.9325H51.3267V54.6406C51.3267 56.561 49.7788 58.1269 47.8654 58.1561H7.96851V44.9597C7.96851 44.3126 7.44387 43.7879 6.79664 43.7879C6.14941 43.7879 5.62477 44.3126 5.62477 44.9597V58.1476C3.79523 58.0265 2.34363 56.5004 2.34363 54.6408V26.4854C3.11812 26.9644 4.01096 27.2178 4.92164 27.2168H47.811C49.7495 27.2168 51.3265 28.794 51.3265 30.7324V35.4018H42.8535C42.2063 35.4018 41.6816 35.9266 41.6816 36.5737C41.6816 37.2208 42.2063 37.7456 42.8535 37.7456H54.8771C55.8631 37.7464 56.828 37.4608 57.6546 36.9235V44.3078Z" fill="black"/>
<path d="M7.62539 39.5606C7.40742 39.3428 7.10508 39.2173 6.79688 39.2173C6.48867 39.2173 6.18633 39.3427 5.96836 39.5606C5.7494 39.7809 5.62604 40.0786 5.625 40.3892C5.625 40.6974 5.75039 40.9997 5.96836 41.2177C6.18633 41.4356 6.48867 41.561 6.79688 41.561C7.10508 41.561 7.40742 41.4356 7.62539 41.2177C7.84336 40.9997 7.96875 40.6974 7.96875 40.3892C7.96761 40.0786 7.84427 39.781 7.62539 39.5606Z" fill="black"/>
</g>
<defs>
<clipPath id="clip0_867_5749">
<rect width="60" height="60" fill="white" transform="translate(0 0.5)"/>
</clipPath>
</defs>
</svg>
