<svg width="25" height="26" viewBox="0 0 25 26" fill="none" xmlns="http://www.w3.org/2000/svg">
<path d="M14.9296 14.0547C14.8241 14.0547 14.7187 14.0117 14.6445 13.9219C14.6117 13.8842 14.5868 13.8405 14.571 13.7932C14.5552 13.7459 14.549 13.6959 14.5526 13.6462C14.5562 13.5964 14.5697 13.5479 14.5921 13.5034C14.6146 13.4588 14.6457 13.4192 14.6835 13.3867L23.9413 5.38671C24.121 5.23437 24.2265 5.01953 24.2421 4.78124C24.2577 4.52343 24.1601 4.26953 23.9726 4.08593C23.6484 3.77343 23.1405 3.75781 22.7929 4.04687L13.5937 11.7891C13.5162 11.8532 13.4166 11.8842 13.3165 11.8754C13.2163 11.8666 13.1236 11.8188 13.0585 11.7422C12.9944 11.6647 12.9634 11.5651 12.9722 11.465C12.9809 11.3648 13.0288 11.2722 13.1054 11.207L22.3046 3.46875C22.6137 3.20647 23.0095 3.06876 23.4147 3.08248C23.8198 3.0962 24.2053 3.26037 24.496 3.54296C24.6675 3.70897 24.801 3.91015 24.8873 4.13268C24.9736 4.35521 25.0107 4.5938 24.996 4.83203C24.9826 5.04923 24.9256 5.2615 24.8282 5.45614C24.7309 5.65078 24.5953 5.8238 24.4296 5.96484L15.1757 13.9609C15.1054 14.0234 15.0155 14.0547 14.9296 14.0547Z" fill="black"/>
<path d="M10.7662 16.9102C10.1334 16.9102 9.40681 16.832 8.60603 16.625C8.45759 16.5859 8.34822 16.4648 8.32478 16.3164C8.30134 16.168 8.37165 16.0156 8.50056 15.9375C8.50056 15.9375 8.68806 15.8164 8.92243 15.5625C9.21931 15.2383 9.49275 14.6758 9.75447 13.8398C9.78181 13.7383 10.5318 11.0156 12.6881 11.0156H12.7584C13.7388 11.043 14.6451 11.6289 15.0631 12.5156L15.0904 12.5742C15.3443 13.1484 15.5006 14.0312 14.8443 15.0625C14.3756 15.8047 13.6099 16.3789 12.7349 16.6367C12.2467 16.7852 11.5826 16.9102 10.7662 16.9102ZM9.50837 16.0469C10.8326 16.2695 11.8599 16.1094 12.524 15.9141C13.2232 15.707 13.8365 15.25 14.2037 14.6641C14.5865 14.0625 14.6529 13.4727 14.4029 12.9023L14.3756 12.8516C14.2272 12.5394 13.9955 12.2742 13.706 12.0853C13.4165 11.8965 13.0804 11.7912 12.7349 11.7812H12.6881C11.1099 11.7812 10.4849 14.0352 10.4771 14.0586C10.1842 15 9.87556 15.6328 9.50837 16.0469Z" fill="black"/>
<path d="M9.81237 23.4804C7.24206 23.4804 4.73034 22.5429 2.83581 20.6445C-1.11732 16.6914 -0.910287 10.0429 3.30456 5.82419C7.18346 1.94529 13.1678 1.40622 17.2303 4.57029C17.871 5.07029 17.9921 5.99216 17.4999 6.62888C16.7342 7.61716 16.2928 8.57029 16.1913 9.46482C16.1856 9.51406 16.1703 9.56172 16.1463 9.60505C16.1222 9.64839 16.0899 9.68656 16.0511 9.7174C16.0122 9.74823 15.9677 9.77111 15.9201 9.78475C15.8724 9.79838 15.8226 9.80249 15.7733 9.79685C15.7241 9.79121 15.6764 9.77592 15.6331 9.75186C15.5897 9.7278 15.5516 9.69544 15.5207 9.65663C15.4585 9.57825 15.4299 9.47834 15.4413 9.37888C15.5585 8.34763 16.0506 7.2656 16.9022 6.16794C17.1405 5.86326 17.078 5.41404 16.7655 5.17185C13.0077 2.24216 7.44909 2.75388 3.83971 6.36326C-0.0782557 10.2851 -0.289193 16.4531 3.37096 20.1133C7.03112 23.7734 13.1952 23.5625 17.1171 19.6445C18.246 18.5156 19.0858 17.1953 19.6131 15.7148C19.7342 15.3711 19.5897 14.9883 19.2733 14.8281C18.371 14.3789 17.121 13.5976 16.285 12.457C16.16 12.289 16.1991 12.0508 16.3671 11.9258C16.535 11.8008 16.7733 11.8398 16.8983 12.0078C17.6444 13.0273 18.7889 13.7343 19.6131 14.1484C20.2733 14.4804 20.578 15.2617 20.328 15.9648C19.7616 17.5508 18.8592 18.9687 17.6522 20.1758C15.4569 22.3711 12.6014 23.4804 9.81237 23.4804Z" fill="black"/>
<path d="M10.8402 8.01956C9.87149 8.01956 9.07852 7.2305 9.07852 6.25784C9.08823 5.79703 9.2781 5.35836 9.60743 5.0359C9.93676 4.71343 10.3793 4.53284 10.8402 4.53284C11.3012 4.53284 11.7437 4.71343 12.0731 5.0359C12.4024 5.35836 12.5923 5.79703 12.602 6.25784C12.5981 7.2305 11.809 8.01956 10.8402 8.01956ZM10.8402 5.25785C10.574 5.25785 10.3186 5.36361 10.1304 5.55188C9.9421 5.74015 9.83634 5.9955 9.83634 6.26175C9.83634 6.528 9.9421 6.78335 10.1304 6.97162C10.3186 7.15989 10.574 7.26566 10.8402 7.26566C11.1065 7.26566 11.3618 7.15989 11.5501 6.97162C11.7384 6.78335 11.8441 6.528 11.8441 6.26175C11.8429 5.99588 11.7368 5.74125 11.5487 5.55324C11.3607 5.36524 11.1061 5.25908 10.8402 5.25785ZM6.04337 9.93753C5.59415 9.93753 5.14102 9.76566 4.79727 9.42191C4.10977 8.73441 4.10977 7.61722 4.79727 6.93363C5.48477 6.24613 6.60196 6.24613 7.28555 6.93363C7.61759 7.26566 7.80118 7.70706 7.80118 8.17972C7.80118 8.64847 7.61759 9.09378 7.28555 9.42581C7.12242 9.58873 6.9287 9.71781 6.71552 9.80562C6.50235 9.89344 6.27392 9.93827 6.04337 9.93753ZM6.04337 7.17581C5.78555 7.17581 5.53165 7.27347 5.33243 7.46878C4.9418 7.85941 4.9418 8.49613 5.33243 8.88675C5.72305 9.27738 6.35977 9.27738 6.7504 8.88675C6.9379 8.69534 7.04337 8.44534 7.04337 8.17581C7.04337 7.90628 6.9379 7.65628 6.7504 7.46878C6.55899 7.27347 6.30118 7.17581 6.04337 7.17581ZM4.01212 14.6836C3.5513 14.6739 3.11264 14.484 2.79017 14.1547C2.4677 13.8254 2.28711 13.3828 2.28711 12.9219C2.28711 12.461 2.4677 12.0184 2.79017 11.6891C3.11264 11.3598 3.5513 11.1699 4.01212 11.1602C4.98087 11.1602 5.77384 11.9493 5.77384 12.9219C5.77384 13.8946 4.98087 14.6836 4.01212 14.6836ZM4.01212 11.9219C3.74587 11.9219 3.49052 12.0277 3.30225 12.2159C3.11398 12.4042 3.00821 12.6596 3.00821 12.9258C3.00821 13.1921 3.11398 13.4474 3.30225 13.6357C3.49052 13.824 3.74587 13.9297 4.01212 13.9297C4.27837 13.9297 4.53372 13.824 4.72199 13.6357C4.91025 13.4474 5.01602 13.1921 5.01602 12.9258C5.01602 12.6596 4.91025 12.4042 4.72199 12.2159C4.53372 12.0277 4.27837 11.9219 4.01212 11.9219ZM5.93009 19.4766C5.46134 19.4766 5.01602 19.293 4.68399 18.961C4.35196 18.6289 4.16837 18.1875 4.16837 17.7149C4.16837 17.2461 4.35196 16.8047 4.68399 16.4688C5.01602 16.1368 5.45743 15.9532 5.93009 15.9532C6.39884 15.9532 6.84415 16.1368 7.17618 16.4688C7.86368 17.1563 7.86368 18.2735 7.17618 18.9571C6.84415 19.293 6.39884 19.4766 5.93009 19.4766ZM5.93009 16.7149C5.73216 16.7145 5.53859 16.773 5.37392 16.8828C5.20926 16.9926 5.08092 17.1489 5.00518 17.3317C4.92944 17.5146 4.90972 17.7158 4.9485 17.9099C4.98729 18.104 5.08285 18.2822 5.22305 18.4219C5.60196 18.8008 6.26212 18.8008 6.64102 18.4219C6.82852 18.2305 6.93399 17.9805 6.93399 17.7149C6.93399 17.4453 6.82852 17.1953 6.64102 17.0078C6.44962 16.8203 6.19571 16.7149 5.93009 16.7149ZM10.6762 21.5118C10.2154 21.502 9.7767 21.3122 9.45423 20.9828C9.13177 20.6535 8.95117 20.2109 8.95117 19.75C8.95117 19.2891 9.13177 18.8465 9.45423 18.5172C9.7767 18.1879 10.2154 17.998 10.6762 17.9883C11.6449 17.9883 12.4379 18.7774 12.4379 19.75C12.4379 20.7227 11.6449 21.5118 10.6762 21.5118ZM10.6762 18.7461C10.4099 18.7461 10.1546 18.8519 9.96631 19.0402C9.77804 19.2284 9.67227 19.4838 9.67227 19.75C9.67227 20.0163 9.77804 20.2716 9.96631 20.4599C10.1546 20.6482 10.4099 20.7539 10.6762 20.7539C10.9424 20.7539 11.1978 20.6482 11.386 20.4599C11.5743 20.2716 11.6801 20.0163 11.6801 19.75C11.6801 19.1993 11.227 18.7461 10.6762 18.7461Z" fill="black"/>
</svg>
