<svg width="13" height="14" viewBox="0 0 13 14" fill="none" xmlns="http://www.w3.org/2000/svg">
<g clip-path="url(#clip0_810_5116)">
<path d="M0.870991 9.87143C0.717222 10.0252 0.717222 10.2745 0.870991 10.4283C1.02476 10.582 1.27407 10.582 1.42784 10.4283L0.870991 9.87143ZM5.03327 7.58694L4.7873 7.89441L4.7873 7.89441L5.03327 7.58694ZM6.14599 8.47711L5.90001 8.78458L5.90002 8.78458L6.14599 8.47711ZM7.5867 8.35478L7.29241 8.09319L7.29241 8.09319L7.5867 8.35478ZM11.4187 4.63645C11.5632 4.47391 11.5485 4.22504 11.386 4.08056C11.2235 3.93609 10.9746 3.95073 10.8301 4.11326L11.4187 4.63645ZM6.90758 8.90164L6.9409 9.29398L6.9409 9.29398L6.90758 8.90164ZM4.30934 7.17916L4.33112 7.5723L4.33112 7.5723L4.30934 7.17916ZM9.54941 3.4561C9.33195 3.4561 9.15566 3.63239 9.15566 3.84985C9.15566 4.06732 9.33195 4.2436 9.54941 4.2436V3.4561ZM11.2557 5.94986C11.2557 6.16732 11.432 6.34361 11.6494 6.34361C11.8669 6.34361 12.0432 6.16732 12.0432 5.94986H11.2557ZM11.4956 4.00362L11.7741 3.7252L11.7741 3.7252L11.4956 4.00362ZM2.72441 4.5061C2.50695 4.5061 2.33066 4.68239 2.33066 4.89985C2.33066 5.11732 2.50695 5.2936 2.72441 5.2936V4.5061ZM5.87441 5.2936C6.09188 5.2936 6.26816 5.11732 6.26816 4.89985C6.26816 4.68239 6.09188 4.5061 5.87441 4.5061V5.2936ZM1.14941 10.1499L1.42784 10.4283L3.9133 7.94281L3.63488 7.66439L3.35645 7.38597L0.870991 9.87143L1.14941 10.1499ZM5.03327 7.58694L4.7873 7.89441L5.90001 8.78458L6.14599 8.47711L6.39196 8.16965L5.27924 7.27947L5.03327 7.58694ZM7.5867 8.35478L7.88099 8.61638L11.4187 4.63645L11.1244 4.37485L10.8301 4.11326L7.29241 8.09319L7.5867 8.35478ZM6.14599 8.47711L5.90002 8.78458C6.07584 8.92524 6.2374 9.05551 6.38296 9.14353C6.53824 9.23743 6.72117 9.31264 6.9409 9.29398L6.90758 8.90164L6.87427 8.50931C6.87395 8.50933 6.87392 8.50932 6.8741 8.50933C6.87428 8.50933 6.87437 8.50934 6.87428 8.50933C6.87425 8.50933 6.87203 8.5091 6.86691 8.50754C6.85556 8.50409 6.83198 8.49477 6.79044 8.46965C6.69954 8.41468 6.58469 8.32383 6.39196 8.16965L6.14599 8.47711ZM7.5867 8.35478L7.29241 8.09319C7.12844 8.27766 7.03055 8.38657 6.95021 8.45609C6.91351 8.48784 6.89183 8.50101 6.88123 8.50632C6.87644 8.50872 6.87429 8.50932 6.87427 8.50933C6.87417 8.50936 6.87426 8.50933 6.87444 8.5093C6.87462 8.50926 6.8746 8.50928 6.87427 8.50931L6.90758 8.90164L6.9409 9.29398C7.16062 9.27533 7.32825 9.17035 7.46548 9.05161C7.59411 8.94032 7.7314 8.78467 7.88099 8.61638L7.5867 8.35478ZM3.63488 7.66439L3.9133 7.94281C4.07874 7.77737 4.17681 7.68037 4.25627 7.61897C4.29246 7.59101 4.31357 7.57957 4.32391 7.57497C4.32861 7.57288 4.33076 7.57236 4.33091 7.57232C4.33095 7.57231 4.33077 7.57232 4.33112 7.5723L4.30934 7.17916L4.28757 6.78601C4.07727 6.79766 3.9123 6.88955 3.77477 6.99583C3.6461 7.09525 3.50711 7.23531 3.35645 7.38597L3.63488 7.66439ZM5.03327 7.58694L5.27924 7.27947C5.11288 7.14638 4.95926 7.02252 4.8204 6.93791C4.67197 6.84748 4.49787 6.77436 4.28757 6.78601L4.30934 7.17916L4.33112 7.5723C4.33146 7.57228 4.33129 7.57229 4.33133 7.5723C4.33148 7.57232 4.33368 7.5726 4.33858 7.57416C4.34936 7.57759 4.3716 7.58663 4.41066 7.61042C4.49642 7.66267 4.6046 7.74825 4.7873 7.89441L5.03327 7.58694ZM9.54941 3.84985V4.2436H10.5994V3.84985V3.4561H9.54941V3.84985ZM11.6494 4.89985H11.2557V5.94986H11.6494H12.0432V4.89985H11.6494ZM10.5994 3.84985V4.2436C10.858 4.2436 11.0124 4.24444 11.123 4.25931C11.1737 4.26613 11.1991 4.27416 11.2105 4.27886C11.2132 4.27995 11.2149 4.2808 11.2159 4.28133C11.2169 4.28185 11.2174 4.28214 11.2174 4.28217C11.2175 4.2822 11.2173 4.28211 11.2172 4.28197C11.217 4.28182 11.217 4.28181 11.2172 4.28205L11.4956 4.00362L11.7741 3.7252C11.6118 3.56296 11.4146 3.50393 11.2279 3.47884C11.0526 3.45527 10.8358 3.4561 10.5994 3.4561V3.84985ZM11.6494 4.89985H12.0432C12.0432 4.6635 12.044 4.44662 12.0204 4.27132C11.9953 4.08469 11.9363 3.88744 11.7741 3.7252L11.4956 4.00362L11.2172 4.28205C11.2175 4.28229 11.2174 4.28229 11.2173 4.28211C11.2172 4.28193 11.2171 4.28181 11.2171 4.28184C11.2171 4.28188 11.2174 4.28233 11.2179 4.28333C11.2185 4.28435 11.2193 4.28609 11.2204 4.28873C11.2251 4.30017 11.2331 4.32556 11.24 4.37625C11.2548 4.48688 11.2557 4.64123 11.2557 4.89985H11.6494ZM2.72441 4.89985V5.2936H5.87441V4.89985V4.5061H2.72441V4.89985Z" fill="#4BB54B"/>
</g>
<defs>
<clipPath id="clip0_810_5116">
<rect width="12.6" height="12.6" fill="white" transform="translate(0.0996094 0.699951)"/>
</clipPath>
</defs>
</svg>
