<svg width="24" height="24" viewBox="0 0 24 24" fill="none" xmlns="http://www.w3.org/2000/svg">
<path d="M15.0226 10.5629C15.0226 10.3839 14.9515 10.2122 14.8249 10.0856C14.6983 9.95906 14.5266 9.88794 14.3476 9.88794H6.92259C6.74357 9.88794 6.57188 9.95906 6.4453 10.0856C6.31871 10.2122 6.24759 10.3839 6.24759 10.5629C6.24759 10.742 6.31871 10.9136 6.4453 11.0402C6.57188 11.1668 6.74357 11.2379 6.92259 11.2379H14.3476C14.4362 11.2379 14.524 11.2205 14.6059 11.1866C14.6878 11.1526 14.7622 11.1029 14.8249 11.0402C14.8876 10.9776 14.9373 10.9031 14.9712 10.8213C15.0051 10.7394 15.0226 10.6516 15.0226 10.5629ZM6.92109 13.2967C6.74207 13.2967 6.57038 13.3678 6.4438 13.4944C6.31721 13.621 6.24609 13.7927 6.24609 13.9717C6.24609 14.1507 6.31721 14.3224 6.4438 14.449C6.57038 14.5756 6.74207 14.6467 6.92109 14.6467H10.8578C11.0369 14.6467 11.2086 14.5756 11.3351 14.449C11.4617 14.3224 11.5328 14.1507 11.5328 13.9717C11.5328 13.7927 11.4617 13.621 11.3351 13.4944C11.2086 13.3678 11.0369 13.2967 10.8578 13.2967H6.92109Z" fill="#303030"/>
<path d="M19.4702 10.6006C19.2912 10.6006 19.1195 10.6717 18.9929 10.7983C18.8663 10.9249 18.7952 11.0965 18.7952 11.2756V16.7348C18.7946 17.2259 18.5992 17.6968 18.252 18.0441C17.9047 18.3914 17.4338 18.5867 16.9427 18.5873H12.4277C12.2813 18.5872 12.1388 18.6348 12.0219 18.7231L8.12345 21.6548C8.09015 21.6815 8.04955 21.6976 8.00698 21.7008C7.96442 21.704 7.92187 21.6942 7.88494 21.6728C7.84678 21.6546 7.81483 21.6255 7.79309 21.5892C7.77135 21.553 7.76078 21.5111 7.7627 21.4688L7.8377 19.2863C7.84061 19.1959 7.82533 19.1057 7.79278 19.0213C7.76023 18.9368 7.71106 18.8598 7.64819 18.7946C7.58532 18.7295 7.51002 18.6777 7.42676 18.6422C7.34349 18.6067 7.25395 18.5883 7.16344 18.5881H4.0277C3.5365 18.5877 3.06554 18.3924 2.71822 18.045C2.37089 17.6977 2.17559 17.2268 2.1752 16.7356V7.81057C2.1748 7.31851 2.36963 6.84639 2.71693 6.49782C3.06423 6.14925 3.53564 5.95271 4.0277 5.95132H12.3452C12.5242 5.95132 12.6959 5.8802 12.8225 5.75362C12.9491 5.62703 13.0202 5.45534 13.0202 5.27632C13.0202 5.0973 12.9491 4.92561 12.8225 4.79902C12.6959 4.67243 12.5242 4.60132 12.3452 4.60132H4.0277C3.17765 4.6033 2.3631 4.94238 1.76273 5.54415C1.16236 6.14593 0.825193 6.96127 0.825195 7.81132V16.7356C0.826187 17.5847 1.16389 18.3988 1.76424 18.9992C2.36459 19.5997 3.17858 19.9376 4.0277 19.9388H6.46445L6.41344 21.4253C6.4031 21.7222 6.47744 22.0158 6.62778 22.272C6.77811 22.5282 6.99824 22.7363 7.26244 22.8721C7.48738 22.99 7.73749 23.0517 7.99144 23.0521C8.32369 23.0521 8.65295 22.9448 8.93344 22.7356L12.6527 19.9388H16.9419C17.7911 19.9376 18.6051 19.5997 19.2054 18.9992C19.8058 18.3988 20.1435 17.5847 20.1444 16.7356V11.2763C20.1446 11.1876 20.1273 11.0998 20.0936 11.0178C20.0598 10.9359 20.0101 10.8614 19.9475 10.7986C19.8849 10.7358 19.8105 10.686 19.7286 10.652C19.6467 10.6181 19.5589 10.6006 19.4702 10.6006Z" fill="#303030"/>
<path d="M23.1193 4.17076C23.0604 3.98742 22.9555 3.82223 22.8146 3.69093C22.6737 3.55964 22.5016 3.46663 22.3145 3.42076L20.5895 2.99101L19.6475 1.48351C19.2298 0.813014 18.1393 0.814514 17.7223 1.48351L16.7803 2.99101L15.0553 3.42076C14.6735 3.51526 14.372 3.79576 14.2505 4.17076C14.129 4.54576 14.207 4.95001 14.4605 5.25226L15.6035 6.61276L15.479 8.38576C15.4649 8.5779 15.5002 8.77046 15.5816 8.94507C15.663 9.11969 15.7878 9.27055 15.944 9.38326C16.0996 9.49694 16.2817 9.56894 16.473 9.59244C16.6642 9.61593 16.8583 9.59014 17.0368 9.51751L18.6853 8.85151L20.333 9.51751C20.6983 9.66601 21.1063 9.61502 21.4258 9.38402C21.7445 9.15226 21.9185 8.77951 21.8915 8.38576L21.767 6.61276L22.91 5.25151C23.1628 4.95001 23.2415 4.54576 23.1193 4.17076ZM20.5573 5.95351C20.4445 6.08786 20.3886 6.26084 20.4013 6.43576L20.5213 8.13826L18.9388 7.49851C18.7767 7.43264 18.5953 7.43264 18.4333 7.49851L16.8515 8.13826L16.9708 6.43576C16.9826 6.26095 16.9268 6.08828 16.8148 5.95351L15.7175 4.64701L17.3735 4.23376C17.5431 4.19141 17.6896 4.08495 17.7823 3.93676L18.6868 2.49001L19.5913 3.93676C19.6843 4.08526 19.8305 4.19176 20 4.23376L21.656 4.64701L20.5573 5.95351Z" fill="#303030"/>
</svg>
