<svg width="21" height="21" viewBox="0 0 21 21" fill="none" xmlns="http://www.w3.org/2000/svg">
<path d="M8.75482 2.13807C9.19899 0.30847 11.801 0.308471 12.2452 2.13807C12.5321 3.31996 13.8862 3.88084 14.9248 3.248C16.5326 2.26836 18.3725 4.10827 17.3929 5.71606C16.76 6.75468 17.3209 8.10876 18.5028 8.39569C20.3324 8.83986 20.3324 11.4419 18.5028 11.886C17.3209 12.173 16.76 13.5271 17.3929 14.5657C18.3725 16.1735 16.5326 18.0134 14.9248 17.0337C13.8862 16.4009 12.5321 16.9618 12.2452 18.1437C11.801 19.9733 9.19899 19.9733 8.75482 18.1437C8.46789 16.9618 7.11381 16.4009 6.07519 17.0337C4.4674 18.0134 2.62749 16.1735 3.60714 14.5657C4.23997 13.5271 3.67909 12.173 2.4972 11.886C0.667601 11.4419 0.667601 8.83986 2.4972 8.39569C3.67909 8.10876 4.23997 6.75468 3.60713 5.71606C2.62749 4.10827 4.4674 2.26836 6.07519 3.248C7.11381 3.88084 8.46789 3.31996 8.75482 2.13807Z" stroke="#262626" stroke-width="1.5" stroke-linecap="round" stroke-linejoin="round"/>
<path d="M13.625 10.1409C13.625 11.8668 12.2259 13.2659 10.5 13.2659C8.77411 13.2659 7.375 11.8668 7.375 10.1409C7.375 8.41498 8.77411 7.01587 10.5 7.01587C12.2259 7.01587 13.625 8.41498 13.625 10.1409Z" stroke="#262626" stroke-width="1.5" stroke-linecap="round" stroke-linejoin="round"/>
</svg>
