<svg width="24" height="24" viewBox="0 0 24 24" fill="none" xmlns="http://www.w3.org/2000/svg">
<g clip-path="url(#clip0_1035_1838)">
<path d="M12.0031 2.75147e-06C11.9379 2.75147e-06 11.8741 0.0141763 11.8174 0.0467753L1.69186 5.69775C1.63166 5.73152 1.58193 5.78122 1.54812 5.8414C1.51432 5.90158 1.49775 5.96991 1.50024 6.03889C1.50273 6.10787 1.52418 6.17483 1.56224 6.23241C1.60029 6.29 1.65348 6.33599 1.71596 6.36533L4.12545 7.49212V8.626H3.75127C3.6519 8.62562 3.55643 8.66464 3.48577 8.73451C3.4151 8.80437 3.37501 8.89939 3.37426 8.99876V12.3735C3.37426 12.5818 3.54292 12.7505 3.75127 12.7505H5.25225C5.45918 12.7505 5.62501 12.5804 5.62501 12.3735V9.00018C5.62501 8.90119 5.58578 8.80623 5.51592 8.73609C5.44605 8.66596 5.35124 8.62638 5.25225 8.626H4.87523V7.84646L7.6745 9.15467C7.77938 9.4183 7.94096 9.69468 8.16632 9.94839V10.0519C7.45197 10.1284 6.9063 10.7619 6.9063 11.5202C6.9063 12.3154 7.50442 12.9872 8.30522 12.9943C8.33782 12.9943 8.36191 12.9943 8.3931 12.9914C8.65672 13.7143 9.13721 14.3393 9.7495 14.7844V15.5979L9.63895 15.4874C9.60367 15.452 9.56169 15.424 9.51544 15.405C9.4692 15.386 9.41964 15.3764 9.36965 15.3768C9.27212 15.3786 9.1791 15.4183 9.11028 15.4874L8.06994 16.5263C6.2288 16.6836 4.32388 17.8912 3.44938 20.0102C3.38843 20.1802 3.00149 21.0179 3.00149 22.2992V23.6258C3.00149 23.8328 3.16732 24.0014 3.37426 24.0014H20.6248C20.8318 24.0014 20.999 23.8313 20.999 23.6258V22.2992C20.999 21.2645 20.7439 20.4736 20.5327 19.9747C19.7036 17.9748 17.844 16.6936 15.9292 16.5249L14.8902 15.4874C14.8554 15.4523 14.814 15.4244 14.7684 15.4054C14.7228 15.3864 14.6739 15.3766 14.6245 15.3766C14.5751 15.3766 14.5261 15.3864 14.4805 15.4054C14.4349 15.4244 14.3935 15.4523 14.3587 15.4874L14.251 15.5951V14.783C14.8619 14.3393 15.3424 13.7129 15.606 12.9914C15.6372 12.9943 15.6627 12.9957 15.6953 12.9957C16.4777 12.9957 17.0942 12.3182 17.0942 11.5202C17.0942 10.7733 16.5613 10.1312 15.8328 10.0547L15.8356 9.94272C16.0468 9.71169 16.2183 9.4183 16.3246 9.15609L22.2831 6.36674C22.3453 6.3374 22.3983 6.29155 22.4362 6.23418C22.4741 6.17682 22.4956 6.11014 22.4982 6.04141C22.5009 5.97269 22.4846 5.90457 22.4511 5.84447C22.4177 5.78437 22.3684 5.7346 22.3086 5.70059L12.1831 0.045358C12.1279 0.0153601 12.0659 -0.000238279 12.0031 2.75147e-06ZM12.0003 0.806475L21.3037 5.99398L16.5329 8.22914C16.5494 8.01136 16.5389 7.79238 16.5018 7.57716V5.39586C16.4964 5.23311 16.4319 5.0779 16.3203 4.95931C16.2231 4.85392 16.1079 4.76658 15.9802 4.70136C15.6705 4.54686 15.3416 4.43437 15.0022 4.36686C14.217 4.18686 13.1653 4.08056 12.0003 4.08056C10.8338 4.08056 9.7821 4.18686 8.99547 4.36686C8.65654 4.43447 8.32812 4.54696 8.01892 4.70136C7.89119 4.76658 7.77602 4.85392 7.67875 4.95931C7.56768 5.07811 7.50369 5.2333 7.49875 5.39586V7.57149C7.48316 7.6537 7.44772 7.88614 7.46898 8.22914L4.87523 7.01589V4.77931L12.0003 0.806475ZM14.835 5.0968C15.1079 5.15203 15.373 5.24056 15.6244 5.36042C15.6953 5.40011 15.735 5.43129 15.752 5.4483V6.79195C15.5099 6.69324 15.2594 6.6164 15.0036 6.56234C14.217 6.38233 13.1653 6.27745 11.9988 6.27745C10.8338 6.27745 9.7821 6.38233 8.99689 6.56092C8.74193 6.61521 8.49205 6.69107 8.24994 6.7877V5.4483C8.28818 5.41322 8.33111 5.38365 8.3775 5.36042C8.53341 5.27538 8.8098 5.17759 9.16272 5.0968C9.86714 4.93664 10.8805 4.83175 12.0003 4.83175C13.12 4.83175 14.1291 4.93664 14.835 5.0968ZM4.12404 5.19885V6.66155L2.69676 5.9954L4.12404 5.19885ZM14.8335 7.29227C15.1879 7.37306 15.4657 7.47369 15.6244 7.55874C15.6726 7.58708 15.7364 7.62677 15.752 7.64378C15.7536 7.66107 15.7569 7.67816 15.7619 7.6948C15.7704 7.73732 15.9362 8.6912 15.2942 9.41972H13.256C12.3433 9.41972 11.5736 8.73939 11.4376 7.85213C11.4216 7.76035 11.3722 7.67777 11.2988 7.6204C11.2254 7.56304 11.1333 7.53499 11.0404 7.5417C10.9475 7.54841 10.8604 7.58941 10.7961 7.65672C10.7317 7.72404 10.6946 7.81288 10.692 7.90599C10.6876 8.30754 10.5255 8.69126 10.2408 8.97442C9.956 9.25759 9.57138 9.41751 9.1698 9.41972H8.70491C8.04159 8.64017 8.24286 7.70047 8.24569 7.65086C8.28567 7.6142 8.3305 7.5832 8.37892 7.55874C8.53483 7.47369 8.80554 7.3759 9.15846 7.29652C9.86289 7.13495 10.882 7.02723 12.0017 7.02723C13.1214 7.02723 14.1305 7.13211 14.8364 7.29227H14.8335ZM11.1272 9.04554C11.363 9.39274 11.6804 9.67677 12.0516 9.87273C12.4227 10.0687 12.8363 10.1706 13.256 10.1695H15.0844V11.6761C15.0844 13.377 13.7152 14.7546 12.0003 14.7546C11.5952 14.7561 11.1939 14.6776 10.8193 14.5235C10.4448 14.3694 10.1043 14.1428 9.8176 13.8567C9.53087 13.5707 9.3035 13.2307 9.14855 12.8565C8.9936 12.4823 8.91412 12.0812 8.91468 11.6761V10.1695H9.16697C10.0982 10.1695 10.7983 9.61815 11.1272 9.04554ZM4.12545 9.37436H4.87523V11.9993H4.12404L4.12545 9.37436ZM8.1649 10.8144V11.6776C8.1649 11.8675 8.17908 12.0546 8.20459 12.236C7.91687 12.1892 7.65607 11.9001 7.65607 11.5202C7.65607 11.1701 7.88143 10.8782 8.1649 10.8144ZM15.8328 10.8144C16.1077 10.881 16.3416 11.1588 16.3416 11.5202C16.3416 11.9001 16.0865 12.1864 15.7917 12.2346C15.8189 12.0502 15.8327 11.864 15.8328 11.6776V10.8144ZM10.4979 15.2025C10.9599 15.3981 11.4659 15.5044 11.9988 15.5044C12.5143 15.5064 13.0248 15.4042 13.4998 15.2039V16.3449L11.9974 17.8473L10.4979 16.3463V15.2025ZM9.37107 16.2825L11.4687 18.376L10.8749 18.9712L8.78003 16.8736L9.37107 16.2825ZM14.6224 16.2825L15.2176 16.8778L13.1256 18.9727L12.5275 18.376L14.6224 16.2825ZM15.8795 17.2747C17.4741 17.4306 18.9609 18.4298 19.7347 20.0243C20.0748 20.7343 20.2502 21.5119 20.2478 22.2992V23.2516H17.6229V22.1277C17.6229 21.9151 17.4528 21.7478 17.2416 21.7507C17.1927 21.7512 17.1443 21.7614 17.0993 21.7807C17.0543 21.7999 17.0135 21.8278 16.9793 21.8628C16.9451 21.8979 16.9181 21.9393 16.8998 21.9847C16.8816 22.0301 16.8725 22.0787 16.8731 22.1277V23.2516H7.12598V22.1277C7.12598 21.9151 6.9559 21.7478 6.7433 21.7507C6.69435 21.7512 6.64598 21.7614 6.60097 21.7807C6.55596 21.7999 6.51517 21.8278 6.48095 21.8628C6.44673 21.8979 6.41975 21.9393 6.40153 21.9847C6.38331 22.0301 6.37423 22.0787 6.37479 22.1277V23.2516H3.75127V22.2992C3.75127 21.5962 3.8845 20.9357 4.1297 20.3305C4.79019 18.6864 6.30534 17.4504 8.11955 17.2761L10.6098 19.765C10.7572 19.9109 10.9925 19.9109 11.1399 19.765L12.0003 18.906L12.8606 19.765C13.008 19.9109 13.2433 19.9109 13.3893 19.765L15.8795 17.2747Z" fill="black"/>
</g>
<defs>
<clipPath id="clip0_1035_1838">
<rect width="24" height="24" fill="white"/>
</clipPath>
</defs>
</svg>
