<svg width="24" height="25" viewBox="0 0 24 25" fill="none" xmlns="http://www.w3.org/2000/svg">
<g clip-path="url(#clip0_1401_7530)">
<path d="M20.1379 17.1344L19.3978 16.5794C19.2797 16.4768 18.7343 16.0992 17.4996 16.5271L15.2666 17.1801C15.1598 16.525 14.479 16.2468 14.1045 16.1907C14.0907 16.1886 14.0767 16.1875 14.0627 16.1875H11.767C10.9637 15.589 10.1291 15.3713 9.28577 15.5416C7.87221 15.8264 6.83665 17.1237 6.4039 17.7603L6.31183 17.6204C6.23482 17.5036 6.12995 17.4078 6.00668 17.3416C5.88341 17.2755 5.74561 17.2411 5.60571 17.2414C5.44071 17.2414 5.28058 17.2894 5.14296 17.3802L4.12521 18.0507C3.93752 18.1744 3.80908 18.3642 3.76371 18.5854C3.71833 18.8067 3.76127 19.0317 3.88502 19.2194L6.54152 23.251C6.61853 23.3678 6.7234 23.4636 6.84668 23.5297C6.96995 23.5959 7.10775 23.6303 7.24765 23.6299C7.41265 23.6299 7.57277 23.5819 7.7104 23.4912L8.72815 22.8207C8.91583 22.6969 9.04427 22.5072 9.08965 22.2859C9.13502 22.0647 9.09208 21.8397 8.96833 21.652L8.87121 21.5046L9.78002 20.9686H15.0146C15.0705 20.9686 15.1251 20.9519 15.1714 20.9208L20.1259 17.5926C20.1631 17.5676 20.1938 17.534 20.2153 17.4947C20.2369 17.4553 20.2488 17.4114 20.25 17.3666C20.2511 17.3218 20.2416 17.2773 20.2221 17.2369C20.2026 17.1965 20.1737 17.1614 20.1379 17.1344ZM8.53877 22.1727C8.53153 22.2089 8.5172 22.2432 8.4966 22.2739C8.47601 22.3045 8.44955 22.3307 8.41877 22.351L7.40102 23.0215C7.27577 23.1038 7.09296 23.065 7.0114 22.9414L4.3549 18.9098C4.31383 18.8476 4.29977 18.7728 4.31496 18.6987C4.33015 18.6246 4.3729 18.5614 4.43496 18.5204L5.45271 17.8499C5.51504 17.809 5.59103 17.7944 5.66406 17.8094C5.73708 17.8244 5.80119 17.8678 5.84233 17.9299L8.49883 21.9616C8.53971 22.0238 8.55396 22.0988 8.53877 22.1727ZM14.929 20.4063H9.70333C9.65308 20.4063 9.60377 20.4198 9.56046 20.4453L8.56146 21.0346L6.74177 18.2729C7.00821 17.848 8.02296 16.3699 9.39696 16.0932C10.1001 15.952 10.8075 16.1526 11.4996 16.6909C11.5489 16.7294 11.6096 16.7502 11.6723 16.7502H14.0387C14.1518 16.7718 14.7193 16.903 14.7193 17.3596C14.7193 17.3766 14.7214 17.3959 14.7244 17.4126C14.7281 17.4329 14.7334 17.4685 14.7356 17.5135C14.733 17.5349 14.7336 17.5568 14.7362 17.5789C14.7308 17.791 14.6425 18.1246 14.169 18.2502H12.094C12.0194 18.2502 11.9478 18.2798 11.8951 18.3326C11.8423 18.3853 11.8127 18.4569 11.8127 18.5314C11.8127 18.606 11.8423 18.6776 11.8951 18.7303C11.9478 18.7831 12.0194 18.8127 12.094 18.8127H14.2035C14.2255 18.8127 14.2472 18.8101 14.2688 18.805C14.9633 18.6396 15.2194 18.1707 15.2818 17.7619L17.6706 17.0628C18.661 16.72 19.0189 16.996 19.0204 16.996C19.0298 17.0054 19.0399 17.0142 19.0506 17.0223L19.4837 17.347L14.929 20.4063ZM6.89758 14.9688H16.882C17.6575 14.9688 18.2882 14.338 18.2882 13.5625V7.37501C18.2882 6.59951 17.6575 5.96876 16.882 5.96876H6.89758C6.12208 5.96876 5.49133 6.59951 5.49133 7.37501V13.5625C5.49133 14.338 6.12227 14.9688 6.89758 14.9688ZM16.882 14.4063H6.89758C6.67388 14.406 6.45942 14.317 6.30124 14.1589C6.14306 14.0007 6.05408 13.7862 6.05383 13.5625V8.35938H17.7257V13.5625C17.7257 14.0277 17.3473 14.4063 16.882 14.4063ZM6.89758 6.53126H16.882C17.3471 6.53126 17.7257 6.90982 17.7257 7.37501V7.79688H6.05383V7.37501C6.05383 6.90982 6.4324 6.53126 6.89758 6.53126ZM9.61558 4.84976C9.62866 4.91315 9.6632 4.97009 9.71337 5.01098C9.76355 5.05186 9.8263 5.07419 9.89102 5.07419H13.8885C13.9532 5.07419 14.016 5.05186 14.0662 5.01098C14.1163 4.97009 14.1509 4.91315 14.164 4.84976L14.8187 1.67932C14.8313 1.61849 14.8234 1.5552 14.7962 1.49936C14.769 1.44351 14.724 1.39827 14.6683 1.37069C14.6128 1.34285 14.5496 1.33427 14.4887 1.34633C14.4277 1.35838 14.3725 1.39037 14.3318 1.43726L13.1569 2.78013L12.1399 0.804257C12.1164 0.758215 12.0806 0.719567 12.0365 0.692578C11.9924 0.665589 11.9417 0.651306 11.89 0.651306C11.8383 0.651306 11.7875 0.665589 11.7434 0.692578C11.6993 0.719567 11.6636 0.758215 11.64 0.804257L10.623 2.77994L9.44815 1.43707C9.40725 1.39031 9.35202 1.35841 9.29108 1.34635C9.23014 1.33428 9.16693 1.34273 9.1113 1.37038C9.05567 1.39802 9.01076 1.4433 8.98357 1.49916C8.95639 1.55501 8.94846 1.6183 8.96102 1.67913L9.61558 4.84976ZM10.4719 3.46169C10.5021 3.49624 10.5403 3.52287 10.5831 3.53926C10.6259 3.55566 10.6721 3.56132 10.7177 3.55575C10.7632 3.55018 10.8067 3.53356 10.8443 3.50733C10.8819 3.48109 10.9126 3.44605 10.9335 3.40526L11.8898 1.54751L12.846 3.40526C12.8886 3.48794 12.9694 3.54438 13.0618 3.55563C13.1074 3.56154 13.1537 3.55605 13.1966 3.53965C13.2395 3.52326 13.2776 3.49647 13.3076 3.46169L14.0518 2.61101L13.6596 4.51169H10.1201L9.72771 2.61119L10.4719 3.46169Z" fill="black"/>
<path d="M6.79688 7.42188H7.03125C7.10584 7.42188 7.17738 7.39224 7.23012 7.3395C7.28287 7.28675 7.3125 7.21522 7.3125 7.14062C7.3125 7.06603 7.28287 6.9945 7.23012 6.94175C7.17738 6.88901 7.10584 6.85938 7.03125 6.85938H6.79688C6.72228 6.85937 6.65075 6.88901 6.598 6.94175C6.54526 6.9945 6.51562 7.06603 6.51562 7.14062C6.51562 7.21522 6.54526 7.28675 6.598 7.3395C6.65075 7.39224 6.72228 7.42188 6.79688 7.42188ZM8.96756 7.42188H9.20194C9.27653 7.42188 9.34807 7.39224 9.40081 7.3395C9.45356 7.28675 9.48319 7.21522 9.48319 7.14062C9.48319 7.06603 9.45356 6.9945 9.40081 6.94175C9.34807 6.88901 9.27653 6.85938 9.20194 6.85938H8.96756C8.89297 6.85937 8.82143 6.88901 8.76869 6.94175C8.71594 6.9945 8.68631 7.06603 8.68631 7.14062C8.68631 7.21522 8.71594 7.28675 8.76869 7.3395C8.82143 7.39224 8.89297 7.42188 8.96756 7.42188ZM7.88212 7.42188H8.1165C8.19109 7.42188 8.26263 7.39224 8.31537 7.3395C8.36812 7.28675 8.39775 7.21522 8.39775 7.14062C8.39775 7.06603 8.36812 6.9945 8.31537 6.94175C8.26263 6.88901 8.19109 6.85938 8.1165 6.85938H7.88212C7.80753 6.85937 7.736 6.88901 7.68325 6.94175C7.63051 6.9945 7.60087 7.06603 7.60087 7.14062C7.60087 7.21522 7.63051 7.28675 7.68325 7.3395C7.736 7.39224 7.80753 7.42188 7.88212 7.42188ZM11.8029 9.12925H7.60406C7.52947 9.12925 7.45793 9.15888 7.40519 9.21163C7.35244 9.26437 7.32281 9.33591 7.32281 9.4105V13.2543C7.32281 13.3288 7.35244 13.4004 7.40519 13.4531C7.45793 13.5059 7.52947 13.5355 7.60406 13.5355H11.8031C11.8777 13.5355 11.9493 13.5059 12.002 13.4531C12.0547 13.4004 12.0844 13.3288 12.0844 13.2543V9.4105C12.0844 9.37355 12.0771 9.33696 12.0629 9.30283C12.0488 9.26869 12.0281 9.23768 12.0019 9.21156C11.9758 9.18544 11.9448 9.16473 11.9106 9.15061C11.8765 9.13648 11.8399 9.12923 11.8029 9.12925ZM11.5217 12.973H7.88531V9.69175H11.5219L11.5217 12.973ZM16.1721 11.0511H13.3112C13.2366 11.0511 13.1651 11.0808 13.1123 11.1335C13.0596 11.1862 13.0299 11.2578 13.0299 11.3324C13.0299 11.407 13.0596 11.4785 13.1123 11.5312C13.1651 11.584 13.2366 11.6136 13.3112 11.6136H16.1721C16.2467 11.6136 16.3182 11.584 16.3709 11.5312C16.4237 11.4785 16.4533 11.407 16.4533 11.3324C16.4533 11.2578 16.4237 11.1862 16.3709 11.1335C16.3182 11.0808 16.2467 11.0511 16.1721 11.0511ZM16.1721 9.628H13.3112C13.2366 9.628 13.1651 9.65763 13.1123 9.71038C13.0596 9.76312 13.0299 9.83466 13.0299 9.90925C13.0299 9.98384 13.0596 10.0554 13.1123 10.1081C13.1651 10.1609 13.2366 10.1905 13.3112 10.1905H16.1721C16.2467 10.1905 16.3182 10.1609 16.3709 10.1081C16.4237 10.0554 16.4533 9.98384 16.4533 9.90925C16.4533 9.83466 16.4237 9.76312 16.3709 9.71038C16.3182 9.65763 16.2467 9.628 16.1721 9.628ZM16.1721 12.4744H13.3112C13.2366 12.4744 13.1651 12.5041 13.1123 12.5568C13.0596 12.6096 13.0299 12.6811 13.0299 12.7557C13.0299 12.8303 13.0596 12.9018 13.1123 12.9546C13.1651 13.0073 13.2366 13.0369 13.3112 13.0369H16.1721C16.2467 13.0369 16.3182 13.0073 16.3709 12.9546C16.4237 12.9018 16.4533 12.8303 16.4533 12.7557C16.4533 12.6811 16.4237 12.6096 16.3709 12.5568C16.3182 12.5041 16.2467 12.4744 16.1721 12.4744Z" fill="black"/>
</g>
<defs>
<clipPath id="clip0_1401_7530">
<rect width="24" height="24" fill="white" transform="translate(0 0.140869)"/>
</clipPath>
</defs>
</svg>
