<svg width="20" height="21" viewBox="0 0 20 21" fill="none" xmlns="http://www.w3.org/2000/svg">
<path d="M9.99941 11.125C10.8647 11.125 11.7106 10.8684 12.43 10.3877C13.1495 9.90695 13.7102 9.22367 14.0414 8.42424C14.3725 7.62481 14.4592 6.74515 14.2903 5.89648C14.1215 5.04781 13.7049 4.26826 13.093 3.65641C12.4811 3.04456 11.7016 2.62788 10.8529 2.45907C10.0043 2.29026 9.1246 2.3769 8.32517 2.70803C7.52574 3.03916 6.84246 3.59992 6.36173 4.31938C5.881 5.03885 5.62441 5.88471 5.62441 6.75C5.62441 7.91032 6.08535 9.02312 6.90582 9.84359C7.72629 10.6641 8.83909 11.125 9.99941 11.125ZM9.99941 3.625C10.6175 3.625 11.2217 3.80828 11.7356 4.15166C12.2495 4.49504 12.65 4.9831 12.8865 5.55412C13.1231 6.12514 13.1849 6.75347 13.0644 7.35966C12.9438 7.96585 12.6462 8.52267 12.2091 8.95971C11.7721 9.39675 11.2153 9.69438 10.6091 9.81496C10.0029 9.93553 9.37454 9.87365 8.80352 9.63713C8.23251 9.4006 7.74445 9.00006 7.40107 8.48616C7.05769 7.97226 6.87441 7.36807 6.87441 6.75C6.87441 5.9212 7.20365 5.12634 7.7897 4.54029C8.37575 3.95424 9.17061 3.625 9.99941 3.625ZM17.4994 15.7C17.1552 14.5033 16.4324 13.4504 15.4393 12.6992C14.4462 11.9479 13.2363 11.5389 11.9911 11.5333H8.01608C6.7712 11.5402 5.56198 11.9498 4.56913 12.7008C3.57628 13.4518 2.85313 14.504 2.50774 15.7H2.49941C2.40135 16.041 2.38381 16.4001 2.44818 16.7491C2.51256 17.098 2.65708 17.4273 2.87037 17.7108C3.08366 17.9944 3.35988 18.2246 3.67728 18.3832C3.99468 18.5419 4.34458 18.6246 4.69941 18.625H15.2827C15.639 18.6272 15.9908 18.5464 16.3104 18.3888C16.6299 18.2313 16.9083 18.0014 17.1235 17.7175C17.3386 17.4336 17.4846 17.1034 17.5499 16.7532C17.6152 16.403 17.5979 16.0424 17.4994 15.7ZM16.1327 16.9583C16.0357 17.0877 15.9099 17.1927 15.7653 17.265C15.6206 17.3374 15.4611 17.375 15.2994 17.375H4.70774C4.54696 17.3746 4.38845 17.337 4.24462 17.2652C4.10079 17.1933 3.97554 17.0892 3.87869 16.9608C3.78183 16.8325 3.716 16.6835 3.68634 16.5255C3.65669 16.3675 3.66401 16.2047 3.70774 16.05C3.978 15.1153 4.54392 14.2934 5.32066 13.7075C6.0974 13.1216 7.04312 12.8032 8.01608 12.8H11.9827C12.9571 12.8023 13.9043 13.1214 14.6814 13.7092C15.4586 14.2969 16.0235 15.1214 16.2911 16.0583C16.3343 16.2111 16.3417 16.3717 16.3128 16.5278C16.2839 16.6839 16.2195 16.8312 16.1244 16.9583H16.1327Z" fill="#505050"/>
</svg>
