<svg width="24" height="24" viewBox="0 0 24 24" fill="none" xmlns="http://www.w3.org/2000/svg">
<g clip-path="url(#clip0_1402_3407)">
<path d="M20.6252 22.3393L20.1068 19.7358C20.0978 19.6905 20.08 19.6474 20.0543 19.609C20.0287 19.5706 19.9957 19.5376 19.9573 19.5119C19.9189 19.4863 19.8758 19.4685 19.8305 19.4595C19.7852 19.4505 19.7386 19.4505 19.6933 19.4596C19.6018 19.4778 19.5213 19.5316 19.4695 19.6091C19.4177 19.6867 19.3989 19.7816 19.4171 19.8731L19.9334 22.4665C19.9516 22.6018 19.9719 22.9141 19.811 23.0993C19.5365 23.4155 18.9464 23.2524 17.4395 23.2967V19.9823C17.4395 19.9361 17.4304 19.8904 17.4127 19.8477C17.3951 19.8051 17.3692 19.7663 17.3365 19.7336C17.3039 19.701 17.2651 19.6751 17.2224 19.6574C17.1798 19.6397 17.134 19.6307 17.0878 19.6307C17.0417 19.6307 16.9959 19.6397 16.9533 19.6574C16.9106 19.6751 16.8718 19.701 16.8392 19.7336C16.8065 19.7663 16.7806 19.8051 16.7629 19.8477C16.7453 19.8904 16.7362 19.9361 16.7362 19.9823V23.2967H10.1798C9.98553 23.2967 9.82812 23.4541 9.82812 23.6484C9.82812 23.8426 9.98553 24 10.1798 24H19.2029C19.7055 24 20.0887 23.8521 20.342 23.5605C20.631 23.2276 20.6999 22.7125 20.6252 22.3393Z" fill="#262626"/>
<path d="M19.7867 18.1261C19.5992 17.4227 19.6649 16.5109 18.7547 15.798C18.2349 15.3917 18.0746 15.4198 15.092 14.54L14.1676 13.9148V13.332C15.8541 12.4169 16.6647 10.7944 16.6647 9.20327V9.13835C17.816 8.92549 18.3782 7.76683 17.7365 6.89946C17.7369 6.89421 17.7554 5.59606 17.6971 5.05048C17.1078 0.0822567 10.8619 -1.7379 7.69082 1.95632C7.62935 2.02646 7.59826 2.11814 7.60439 2.21121C7.61052 2.30427 7.65337 2.39109 7.72351 2.45256C7.79365 2.51403 7.88534 2.54512 7.9784 2.53898C8.07147 2.53285 8.15828 2.49 8.21975 2.41986C10.8335 -0.60043 15.8052 0.588506 16.8538 4.39423L16.8595 4.41533C17.0965 5.29067 17.0193 5.89976 17.0344 6.36223C16.8262 6.2764 16.5948 6.22671 16.3507 6.22203C16.0986 6.08398 15.8842 5.84506 15.7693 5.53006C15.7104 5.35676 15.6879 5.26836 15.6702 4.97708C15.6666 4.84083 15.634 4.70692 15.5746 4.58427C15.5151 4.46163 15.4302 4.35307 15.3255 4.26584C14.5916 3.65351 13.9628 4.59195 9.98347 4.12564L9.4535 4.05195C8.88144 3.96289 8.35208 4.39231 8.33689 4.98026C8.32879 5.15009 8.31922 5.25373 8.267 5.44254C8.15155 5.82898 7.92308 6.02398 7.93921 6.0072C7.84949 6.09762 7.75091 6.1706 7.6566 6.22203C7.41252 6.22671 7.18096 6.27635 6.97265 6.36228C6.97419 5.33534 6.97832 4.66503 7.39443 3.71633C7.4314 3.63099 7.43306 3.53449 7.39906 3.44793C7.36505 3.36138 7.29814 3.29181 7.21297 3.25447C7.1278 3.21712 7.0313 3.21504 6.9446 3.24867C6.85789 3.28229 6.78804 3.3489 6.75032 3.43391C6.46734 4.07928 6.3059 4.76876 6.27496 5.48707C6.27496 5.49181 6.26376 6.80482 6.27065 6.89955C5.62673 7.77002 6.19434 8.92624 7.34268 9.13844C7.36447 12.2096 9.78331 13.2853 9.81917 13.3209L9.82841 13.326V13.9203L8.91819 14.5358C6.18576 15.3418 5.94777 15.4104 5.91543 15.4225C5.1501 15.7079 4.56984 16.3173 4.39495 17.1937C3.32433 22.5718 3.3697 22.3405 3.36712 22.3586C3.23259 23.3091 3.73462 23.9999 4.79282 23.9999H8.53916C8.73341 23.9999 8.89081 23.8425 8.89081 23.6483C8.89081 23.454 8.73341 23.2966 8.53916 23.2966H7.27213V19.9823C7.27213 19.788 7.11472 19.6306 6.92048 19.6306C6.72623 19.6306 6.56882 19.788 6.56882 19.9823V23.2967H4.79278C4.22348 23.2967 3.98428 23.0473 4.06228 22.4664C5.17476 17.0572 5.02106 17.0293 5.48038 16.5308C5.6632 16.3322 5.89809 16.1815 6.15037 16.0855L8.83808 15.2927L8.84375 15.291C9.52161 17.1759 9.47596 17.0959 9.54228 17.2121C9.72425 17.5311 10.1409 17.6849 10.5326 17.4585L11.5788 17.0437V19.9822C11.5788 20.0284 11.5879 20.0741 11.6056 20.1168C11.6232 20.1595 11.6491 20.1982 11.6818 20.2309C11.7144 20.2635 11.7532 20.2894 11.7959 20.3071C11.8386 20.3248 11.8843 20.3339 11.9305 20.3339C11.9766 20.3339 12.0224 20.3248 12.065 20.3071C12.1077 20.2894 12.1465 20.2635 12.1791 20.2309C12.2118 20.1982 12.2377 20.1595 12.2554 20.1168C12.273 20.0741 12.2821 20.0284 12.2821 19.9822V17.0279C13.8065 17.5817 13.3717 17.4176 13.5511 17.5017C13.9192 17.6741 14.3727 17.4985 14.5157 17.0976L15.1596 15.2931C18.2609 16.2079 17.4619 15.976 17.5961 16.0118C17.6245 16.0288 18.6856 16.1994 18.9113 17.3309L19.0969 18.2634C19.1059 18.3087 19.1238 18.3518 19.1494 18.3902C19.1751 18.4286 19.2081 18.4616 19.2465 18.4872C19.2849 18.5129 19.328 18.5307 19.3733 18.5397C19.4185 18.5487 19.4652 18.5487 19.5105 18.5397C19.5558 18.5307 19.5988 18.5128 19.6372 18.4872C19.6756 18.4615 19.7086 18.4285 19.7343 18.3901C19.7599 18.3517 19.7778 18.3087 19.7868 18.2634C19.7958 18.2181 19.7958 18.1714 19.7867 18.1261ZM16.6647 6.97484C17.5135 7.2273 17.5129 8.16457 16.6647 8.41694V6.97484ZM7.34282 8.41699C6.49396 8.16462 6.4941 7.22712 7.34282 6.97479V8.41699ZM8.32236 10.6591C7.96475 9.75686 8.04613 9.27691 8.04613 6.80951C8.60511 6.47988 9.01799 5.8541 9.0403 4.99493C9.04428 4.8365 9.19161 4.72273 9.34508 4.74683L9.45308 4.76323C9.78772 4.77931 11.5187 5.18928 14.6622 4.74687C14.6998 4.74105 14.7382 4.74329 14.7749 4.75345C14.8116 4.76361 14.8457 4.78145 14.875 4.80579C14.9608 4.87747 14.9646 4.95659 14.9686 5.02484C14.991 5.64762 15.2208 6.20909 15.681 6.60729L15.6784 6.60513C15.7435 6.66377 15.8578 6.74871 15.9612 6.80941L15.9614 9.20332C15.9614 12.04 12.98 14.1077 10.1875 12.7204C10.186 12.7196 10.1839 12.7186 10.1818 12.7176L10.1817 12.7175C9.362 12.2917 8.68171 11.5692 8.32236 10.6591ZM10.1562 16.8644C10.1462 16.8634 10.1802 16.9337 9.48678 15.0003L10.1021 14.5843L11.3819 16.3653C10.1742 16.8488 10.2247 16.8136 10.1562 16.8644ZM11.9416 15.9389L10.5319 13.9771V13.6259C11.3001 13.8799 11.9268 13.8596 11.9697 13.8636V13.8605C11.9718 13.8605 11.9739 13.8607 11.976 13.8607L11.9761 13.8636C12.6287 13.8524 13.007 13.7799 13.4643 13.6297V13.9808L11.9416 15.9389ZM13.8526 16.863C13.8447 16.8701 13.8319 16.8425 13.7569 16.8153L12.5047 16.3606L13.8916 14.5772L14.5174 15.0003L13.8526 16.863Z" fill="#262626"/>
</g>
<defs>
<clipPath id="clip0_1402_3407">
<rect width="24" height="24" fill="white"/>
</clipPath>
</defs>
</svg>
