<svg width="22" height="22" viewBox="0 0 22 22" fill="none" xmlns="http://www.w3.org/2000/svg">
<path d="M20.0748 5.6907C19.8416 5.5772 19.5809 5.53253 19.3233 5.56192C19.0656 5.5913 18.8217 5.69353 18.62 5.85662L16.2706 7.73578V7.33337C16.3245 6.86893 16.2726 6.39833 16.1189 5.95677C15.9651 5.51522 15.7136 5.11414 15.383 4.78353C15.0524 4.45293 14.6513 4.20135 14.2097 4.04764C13.7682 3.89392 13.2976 3.84204 12.8331 3.89587H4.58312C4.11868 3.84204 3.64809 3.89392 3.20653 4.04764C2.76497 4.20135 2.36389 4.45293 2.03329 4.78353C1.70268 5.11414 1.45111 5.51522 1.29739 5.95677C1.14368 6.39833 1.09179 6.86893 1.14562 7.33337V14.6667C1.09179 15.1311 1.14368 15.6017 1.29739 16.0433C1.45111 16.4848 1.70268 16.8859 2.03329 17.2165C2.36389 17.5471 2.76497 17.7987 3.20653 17.9524C3.64809 18.1061 4.11868 18.158 4.58312 18.1042H12.8331C13.2976 18.158 13.7682 18.1061 14.2097 17.9524C14.6513 17.7987 15.0524 17.5471 15.383 17.2165C15.7136 16.8859 15.9651 16.4848 16.1189 16.0433C16.2726 15.6017 16.3245 15.1311 16.2706 14.6667V14.2643L18.62 16.1434C18.8624 16.3392 19.1646 16.446 19.4762 16.4459C19.6834 16.4457 19.8879 16.399 20.0748 16.3094C20.309 16.1979 20.5066 16.022 20.6445 15.8024C20.7825 15.5828 20.8551 15.3285 20.854 15.0691V6.93095C20.8551 6.67159 20.7825 6.41726 20.6445 6.19764C20.5066 5.97802 20.309 5.8022 20.0748 5.6907ZM14.8956 14.6667C14.8956 16.1123 14.2787 16.7292 12.8331 16.7292H4.58312C3.13754 16.7292 2.52062 16.1123 2.52062 14.6667V7.33337C2.52062 5.88778 3.13754 5.27087 4.58312 5.27087H12.8331C14.2787 5.27087 14.8956 5.88778 14.8956 7.33337V14.6667ZM19.479 15.07L16.2706 12.5034V9.4967L19.479 6.93003V15.07Z" fill="#505050"/>
</svg>
