<svg width="60" height="60" viewBox="0 0 60 60" fill="none" xmlns="http://www.w3.org/2000/svg">
<path d="M10.943 56.8862H47.153C48.493 56.8814 49.7764 56.3458 50.7222 55.3966C51.668 54.4474 52.1991 53.1621 52.199 51.8222V44.0222C52.7854 43.7142 53.2754 43.2505 53.6152 42.6821C53.955 42.1136 54.1314 41.4624 54.125 40.8002V32.3582C54.137 31.6909 53.9632 31.0334 53.6231 30.4591C53.283 29.8848 52.79 29.4164 52.199 29.1062V21.3062C52.199 19.9631 51.6655 18.6751 50.7158 17.7254C49.7662 16.7757 48.4781 16.2422 47.135 16.2422H39.101L42.287 4.24217C42.3221 4.10886 42.3263 3.9693 42.2992 3.83414C42.2722 3.69897 42.2147 3.57175 42.131 3.46217C42.0454 3.35024 41.9343 3.2603 41.8071 3.19979C41.6798 3.13927 41.5399 3.10993 41.399 3.11417L24.083 3.15017C23.9169 3.15507 23.7554 3.20589 23.6163 3.29698C23.4773 3.38807 23.3662 3.51588 23.2954 3.66624C23.2246 3.8166 23.1968 3.98364 23.2151 4.14884C23.2333 4.31404 23.297 4.47095 23.399 4.60217L26.399 8.49017L23.357 10.8362C21.481 12.2735 19.9583 14.1205 18.905 16.2362H10.943C9.59944 16.2362 8.31077 16.7695 7.36013 17.719C6.4095 18.6685 5.87464 19.9566 5.87305 21.3002V51.8222C5.87464 53.1658 6.4095 54.4538 7.36013 55.4033C8.31077 56.3528 9.59944 56.8862 10.943 56.8862ZM52.325 40.8002C52.367 41.2334 52.236 41.6657 51.9607 42.0029C51.6854 42.34 51.288 42.5547 50.855 42.6002H42.983C41.3917 42.6002 39.8656 41.968 38.7404 40.8428C37.6152 39.7176 36.983 38.1915 36.983 36.6002C36.983 35.0089 37.6152 33.4827 38.7404 32.3575C39.8656 31.2323 41.3917 30.6002 42.983 30.6002H50.855C51.288 30.6456 51.6854 30.8603 51.9607 31.1975C52.236 31.5346 52.367 31.9669 52.325 32.4002V40.8002ZM24.449 12.2642L28.199 9.36617C28.2935 9.29431 28.3724 9.20413 28.4312 9.10104C28.49 8.99794 28.5273 8.88405 28.541 8.76617C28.5699 8.52921 28.5054 8.29033 28.361 8.10017L25.931 4.95017L40.247 4.91417L36.599 18.7502L34.199 15.6062C34.0521 15.4176 33.8366 15.2947 33.5994 15.2644C33.3623 15.2341 33.1227 15.2987 32.933 15.4442L26.453 20.4002C23.4907 22.6822 21.4517 25.9569 20.711 29.6222C19.7265 27.7717 19.1765 25.7212 19.1026 23.6263C19.0288 21.5315 19.4332 19.4474 20.285 17.5322C20.284 17.5102 20.284 17.4882 20.285 17.4662C21.2246 15.4164 22.6547 13.6297 24.449 12.2642ZM7.64905 21.3242C7.65064 20.458 7.99585 19.6278 8.60893 19.0158C9.222 18.4039 10.0528 18.0602 10.919 18.0602H18.119C17.775 19.0672 17.5338 20.1065 17.399 21.1622C17.1308 23.1887 17.2674 25.2483 17.8009 27.2217C18.3344 29.195 19.2542 31.0429 20.507 32.6582L20.573 32.7422C20.6566 32.8524 20.7645 32.9417 20.8884 33.0031C21.0123 33.0646 21.1488 33.0964 21.287 33.0962C21.3805 33.094 21.4732 33.0799 21.563 33.0542C21.7348 32.9926 21.884 32.8806 21.991 32.7329C22.0981 32.5852 22.158 32.4086 22.163 32.2262C22.2342 30.2073 22.7503 28.229 23.6744 26.4326C24.5986 24.6362 25.9079 23.066 27.509 21.8342L33.281 17.4002L36.281 21.2762C36.3835 21.4104 36.5217 21.5131 36.6798 21.5725C36.8379 21.632 37.0095 21.6457 37.175 21.6122C37.3319 21.5788 37.4771 21.5046 37.5962 21.3972C37.7152 21.2897 37.8038 21.1528 37.853 21.0002L38.627 18.0842H47.153C48.011 18.0904 48.8321 18.4336 49.4393 19.0397C50.0465 19.6458 50.3912 20.4663 50.399 21.3242V28.8002H42.983C40.9144 28.8002 38.9304 29.622 37.4676 31.0847C36.0048 32.5475 35.183 34.5315 35.183 36.6002C35.183 38.6689 36.0048 40.6528 37.4676 42.1156C38.9304 43.5784 40.9144 44.4002 42.983 44.4002H50.399V51.8222C50.3975 52.6873 50.0531 53.5166 49.4413 54.1284C48.8295 54.7402 48.0002 55.0846 47.135 55.0862H10.943C10.0768 55.0862 9.246 54.7425 8.63293 54.1305C8.01985 53.5186 7.67464 52.6884 7.67305 51.8222L7.64905 21.3242ZM42.947 33.3842C42.3178 33.3889 41.704 33.5796 41.1828 33.9321C40.6615 34.2847 40.2561 34.7834 40.0175 35.3657C39.7789 35.948 39.7177 36.5878 39.8416 37.2047C39.9656 37.8217 40.2691 38.3882 40.7141 38.8332C41.159 39.2781 41.7256 39.5816 42.3425 39.7056C42.9594 39.8295 43.5993 39.7683 44.1815 39.5297C44.7638 39.2911 45.2626 38.8857 45.6151 38.3645C45.9677 37.8432 46.1583 37.2294 46.163 36.6002C46.1662 36.179 46.086 35.7613 45.927 35.3713C45.768 34.9812 45.5334 34.6265 45.2367 34.3276C44.9399 34.0286 44.587 33.7913 44.1981 33.6294C43.8093 33.4675 43.3923 33.3842 42.971 33.3842H42.947ZM42.947 37.9622C42.6715 37.9574 42.4037 37.8709 42.1773 37.7137C41.951 37.5565 41.7764 37.3357 41.6757 37.0793C41.575 36.8228 41.5526 36.5422 41.6115 36.273C41.6704 36.0038 41.8078 35.7582 42.0064 35.5671C42.205 35.3761 42.4558 35.2484 42.7271 35.2C42.9983 35.1516 43.2778 35.1849 43.5302 35.2955C43.7826 35.4061 43.9964 35.5891 44.1447 35.8214C44.2929 36.0537 44.3689 36.3247 44.363 36.6002C44.3552 36.9641 44.2051 37.3105 43.9449 37.5651C43.6847 37.8197 43.3351 37.9623 42.971 37.9622H42.947Z" fill="black"/>
</svg>
